<?xml version="1.0" encoding="UTF-8"?>
<svg version="1.1" xmlns="http://www.w3.org/2000/svg" width="800" height="800">
<path d="M0 0 C264 0 528 0 800 0 C800 264 800 528 800 800 C536 800 272 800 0 800 C0 536 0 272 0 0 Z " fill="#EA1585" transform="translate(0,0)"/>
<path d="M0 0 C135.3 0 270.6 0 410 0 C410 1.32 410 2.64 410 4 C413.96 4 417.92 4 422 4 C422 5.32 422 6.64 422 8 C424.97 8 427.94 8 431 8 C431 9.32 431 10.64 431 12 C432.32 12 433.64 12 435 12 C435 13.32 435 14.64 435 16 C436.32 16 437.64 16 439 16 C439 17.65 439 19.3 439 21 C440.32 21 441.64 21 443 21 C443 22.32 443 23.64 443 25 C444.32 25 445.64 25 447 25 C447 26.32 447 27.64 447 29 C448.32 29 449.64 29 451 29 C451.33 31.64 451.66 34.28 452 37 C453.32 37 454.64 37 456 37 C456 38.32 456 39.64 456 41 C457.32 41 458.64 41 460 41 C460 42.32 460 43.64 460 45 C461.32 45 462.64 45 464 45 C464 46.65 464 48.3 464 50 C465.32 50 466.64 50 468 50 C468 52.64 468 55.28 468 58 C469.32 58 470.64 58 472 58 C472 59.32 472 60.64 472 62 C473.32 62 474.64 62 476 62 C476 63.32 476 64.64 476 66 C477.32 66 478.64 66 480 66 C480.33 68.64 480.66 71.28 481 74 C482.32 74.33 483.64 74.66 485 75 C485 76.32 485 77.64 485 79 C486.32 79 487.64 79 489 79 C489 80.32 489 81.64 489 83 C490.32 83 491.64 83 493 83 C493 84.32 493 85.64 493 87 C494.32 87 495.64 87 497 87 C497 88.32 497 89.64 497 91 C498.32 91 499.64 91 501 91 C501 93.64 501 96.28 501 99 C503.97 99 506.94 99 510 99 C510 101.64 510 104.28 510 107 C511.32 107.33 512.64 107.66 514 108 C514 109.32 514 110.64 514 112 C515.32 112 516.64 112 518 112 C518 114.64 518 117.28 518 120 C519.32 120 520.64 120 522 120 C522 121.32 522 122.64 522 124 C523.32 124 524.64 124 526 124 C526 125.32 526 126.64 526 128 C527.32 128 528.64 128 530 128 C530 129.65 530 131.3 530 133 C531.32 133 532.64 133 534 133 C534 135.64 534 138.28 534 141 C535.65 141 537.3 141 539 141 C539 142.32 539 143.64 539 145 C540.32 145 541.64 145 543 145 C543 146.32 543 147.64 543 149 C544.32 149 545.64 149 547 149 C547 150.32 547 151.64 547 153 C548.32 153 549.64 153 551 153 C551 155.64 551 158.28 551 161 C552.32 161 553.64 161 555 161 C555 162.65 555 164.3 555 166 C556.32 166 557.64 166 559 166 C559 167.32 559 168.64 559 170 C560.32 170 561.64 170 563 170 C563 171.32 563 172.64 563 174 C564.32 174 565.64 174 567 174 C567.33 176.64 567.66 179.28 568 182 C569.32 182 570.64 182 572 182 C572 183.32 572 184.64 572 186 C573.32 186 574.64 186 576 186 C576 187.32 576 188.64 576 190 C577.32 190 578.64 190 580 190 C580 191.65 580 193.3 580 195 C581.32 195 582.64 195 584 195 C584 196.32 584 197.64 584 199 C585.32 199 586.64 199 588 199 C588 201.64 588 204.28 588 207 C589.32 207 590.64 207 592 207 C592 208.32 592 209.64 592 211 C593.32 211 594.64 211 596 211 C596 212.32 596 213.64 596 215 C597.65 215 599.3 215 601 215 C601 219.29 601 223.58 601 228 C601.99 228 602.98 228 604 228 C604 231.96 604 235.92 604 240 C603.01 240 602.02 240 601 240 C601 242.97 601 245.94 601 249 C599.68 249 598.36 249 597 249 C596.67 251.64 596.34 254.28 596 257 C594.68 257 593.36 257 592 257 C592 258.32 592 259.64 592 261 C590.68 261 589.36 261 588 261 C588 262.32 588 263.64 588 265 C586.68 265 585.36 265 584 265 C584 266.32 584 267.64 584 269 C582.68 269 581.36 269 580 269 C580 271.64 580 274.28 580 277 C578.68 277 577.36 277 576 277 C576 278.65 576 280.3 576 282 C574.68 282 573.36 282 572 282 C572 283.32 572 284.64 572 286 C570.68 286 569.36 286 568 286 C567.67 288.64 567.34 291.28 567 294 C565.68 294 564.36 294 563 294 C563 295.32 563 296.64 563 298 C561.68 298 560.36 298 559 298 C559 299.32 559 300.64 559 302 C557.68 302 556.36 302 555 302 C555 303.65 555 305.3 555 307 C553.68 307 552.36 307 551 307 C551 309.64 551 312.28 551 315 C549.68 315 548.36 315 547 315 C547 316.32 547 317.64 547 319 C545.68 319 544.36 319 543 319 C543 320.32 543 321.64 543 323 C541.68 323 540.36 323 539 323 C539 324.32 539 325.64 539 327 C537.35 327 535.7 327 534 327 C534 329.64 534 332.28 534 335 C532.68 335 531.36 335 530 335 C530 336.65 530 338.3 530 340 C528.68 340 527.36 340 526 340 C526 341.32 526 342.64 526 344 C524.68 344 523.36 344 522 344 C522 345.32 522 346.64 522 348 C520.68 348 519.36 348 518 348 C518 350.64 518 353.28 518 356 C516.68 356 515.36 356 514 356 C514 357.32 514 358.64 514 360 C512.35 360 510.7 360 509 360 C509 361.32 509 362.64 509 364 C507.68 364 506.36 364 505 364 C505 365.65 505 367.3 505 369 C503.68 369 502.36 369 501 369 C501 371.64 501 374.28 501 377 C499.68 377 498.36 377 497 377 C497 378.32 497 379.64 497 381 C495.68 381 494.36 381 493 381 C493 382.32 493 383.64 493 385 C491.68 385 490.36 385 489 385 C489 386.32 489 387.64 489 389 C487.68 389 486.36 389 485 389 C485 391.97 485 394.94 485 398 C483.35 398 481.7 398 480 398 C480 399.32 480 400.64 480 402 C478.68 402 477.36 402 476 402 C476 403.32 476 404.64 476 406 C474.68 406 473.36 406 472 406 C472 408.64 472 411.28 472 414 C470.68 414 469.36 414 468 414 C468 415.32 468 416.64 468 418 C466.68 418 465.36 418 464 418 C464 419.65 464 421.3 464 423 C462.68 423 461.36 423 460 423 C460 425.64 460 428.28 460 431 C458.68 431 457.36 431 456 431 C456 432.32 456 433.64 456 435 C454.35 435 452.7 435 451 435 C451 436.32 451 437.64 451 439 C449.68 439 448.36 439 447 439 C447 440.32 447 441.64 447 443 C445.68 443 444.36 443 443 443 C443 444.32 443 445.64 443 447 C441.68 447 440.36 447 439 447 C439 448.65 439 450.3 439 452 C437.68 452 436.36 452 435 452 C435 453.32 435 454.64 435 456 C433.68 456 432.36 456 431 456 C431 457.32 431 458.64 431 460 C428.36 460 425.72 460 423 460 C423 461.32 423 462.64 423 464 C418.71 464 414.42 464 410 464 C410 465.32 410 466.64 410 468 C274.7 468 139.4 468 0 468 C0 466.68 0 465.36 0 464 C-2.64 464 -5.28 464 -8 464 C-8 462.68 -8 461.36 -8 460 C-9.65 460 -11.3 460 -13 460 C-13 458.68 -13 457.36 -13 456 C-14.32 456 -15.64 456 -17 456 C-17 309.48 -17 162.96 -17 12 C-15.68 12 -14.36 12 -13 12 C-13 10.68 -13 9.36 -13 8 C-11.35 8 -9.7 8 -8 8 C-8 6.68 -8 5.36 -8 4 C-5.36 4 -2.72 4 0 4 C0 2.68 0 1.36 0 0 Z " fill="#FEFEFE" transform="translate(108,166)"/>
<path d="M0 0 C23.43 0 46.86 0 71 0 C71 1.32 71 2.64 71 4 C72.32 4 73.64 4 75 4 C75 5.32 75 6.64 75 8 C76.32 8 77.64 8 79 8 C79 9.32 79 10.64 79 12 C80.65 12 82.3 12 84 12 C84 13.32 84 14.64 84 16 C84.99 16 85.98 16 87 16 C87 21.61 87 27.22 87 33 C86.01 33 85.02 33 84 33 C84 34.32 84 35.64 84 37 C82.35 37 80.7 37 79 37 C79 38.32 79 39.64 79 41 C77.68 41 76.36 41 75 41 C75 42.65 75 44.3 75 46 C73.68 46 72.36 46 71 46 C71 47.32 71 48.64 71 50 C54.5 50 38 50 21 50 C21 53.96 21 57.92 21 62 C19.68 62 18.36 62 17 62 C17 64.64 17 67.28 17 70 C15.68 70 14.36 70 13 70 C13 75.61 13 81.22 13 87 C11.68 87 10.36 87 9 87 C9 90.96 9 94.92 9 99 C7.68 99 6.36 99 5 99 C4.67 101.97 4.34 104.94 4 108 C3.01 108 2.02 108 1 108 C0.67 111.96 0.34 115.92 0 120 C-1.32 120 -2.64 120 -4 120 C-4 122.64 -4 125.28 -4 128 C-5.32 128 -6.64 128 -8 128 C-8 132.29 -8 136.58 -8 141 C-9.32 141 -10.64 141 -12 141 C-12 144.96 -12 148.92 -12 153 C-13.32 153 -14.64 153 -16 153 C-16 157.29 -16 161.58 -16 166 C-17.32 166 -18.64 166 -20 166 C-20 169.96 -20 173.92 -20 178 C-21.32 178 -22.64 178 -24 178 C-23.98839844 178.98742187 -23.97679687 179.97484375 -23.96484375 180.9921875 C-23.95130859 182.91417969 -23.95130859 182.91417969 -23.9375 184.875 C-23.92589844 186.15117187 -23.91429687 187.42734375 -23.90234375 188.7421875 C-24 192 -24 192 -25 194 C-25.99 194 -26.98 194 -28 194 C-28 195.65 -28 197.3 -28 199 C-29.65 199 -31.3 199 -33 199 C-33 201.64 -33 204.28 -33 207 C-34.32 207 -35.64 207 -37 207 C-37 208.32 -37 209.64 -37 211 C-38.32 211 -39.64 211 -41 211 C-41 212.32 -41 213.64 -41 215 C-43.64 215.33 -46.28 215.66 -49 216 C-49 216.99 -49 217.98 -49 219 C-113.35 219 -177.7 219 -244 219 C-244 218.01 -244 217.02 -244 216 C-246.64 215.67 -249.28 215.34 -252 215 C-252 213.68 -252 212.36 -252 211 C-253.32 211 -254.64 211 -256 211 C-256.33 208.36 -256.66 205.72 -257 203 C-258.32 203 -259.64 203 -261 203 C-261 199.04 -261 195.08 -261 191 C-262.32 191 -263.64 191 -265 191 C-265 186.71 -265 182.42 -265 178 C-266.32 178 -267.64 178 -269 178 C-269 174.04 -269 170.08 -269 166 C-270.32 166 -271.64 166 -273 166 C-273 161.71 -273 157.42 -273 153 C-274.32 153 -275.64 153 -277 153 C-277 150.36 -277 147.72 -277 145 C-278.32 145 -279.64 145 -281 145 C-281.33 141.04 -281.66 137.08 -282 133 C-282.99 132.67 -283.98 132.34 -285 132 C-285 128.04 -285 124.08 -285 120 C-286.32 120 -287.64 120 -289 120 C-289.33 117.36 -289.66 114.72 -290 112 C-291.32 112 -292.64 112 -294 112 C-294 107.71 -294 103.42 -294 99 C-295.32 99 -296.64 99 -298 99 C-298 95.04 -298 91.08 -298 87 C-299.32 87 -300.64 87 -302 87 C-302 84.36 -302 81.72 -302 79 C-303.32 79 -304.64 79 -306 79 C-306 72.07 -306 65.14 -306 58 C-304.68 58 -303.36 58 -302 58 C-302 56.68 -302 55.36 -302 54 C-300.68 54 -299.36 54 -298 54 C-298 51.03 -298 48.06 -298 45 C-207.58 45 -117.16 45 -24 45 C-24 44.01 -24 43.02 -24 42 C-22.515 41.505 -22.515 41.505 -21 41 C-20.67 38.36 -20.34 35.72 -20 33 C-18.68 33 -17.36 33 -16 33 C-16 29.04 -16 25.08 -16 21 C-14.68 21 -13.36 21 -12 21 C-12 18.03 -12 15.06 -12 12 C-10.68 12 -9.36 12 -8 12 C-8 10.68 -8 9.36 -8 8 C-6.68 8 -5.36 8 -4 8 C-4 6.68 -4 5.36 -4 4 C-2.68 4 -1.36 4 0 4 C0 2.68 0 1.36 0 0 Z " fill="#E91585" transform="translate(468,253)"/>
<path d="M0 0 C68.31 0 136.62 0 207 0 C207 2.64 207 5.28 207 8 C205.68 8 204.36 8 203 8 C203 10.97 203 13.94 203 17 C201.68 17 200.36 17 199 17 C198.67 19.64 198.34 22.28 198 25 C197.01 25 196.02 25 195 25 C194.67 30.28 194.34 35.56 194 41 C192.68 41 191.36 41 190 41 C190 45.29 190 49.58 190 54 C188.68 54 187.36 54 186 54 C186 57.96 186 61.92 186 66 C184.68 66 183.36 66 182 66 C182 70.29 182 74.58 182 79 C180.68 79 179.36 79 178 79 C178 80.32 178 81.64 178 83 C128.83 83 79.66 83 29 83 C29 81.68 29 80.36 29 79 C27.68 79 26.36 79 25 79 C25 74.71 25 70.42 25 66 C23.68 66 22.36 66 21 66 C20.67 62.04 20.34 58.08 20 54 C19.01 54 18.02 54 17 54 C17 49.71 17 45.42 17 41 C15.68 41 14.36 41 13 41 C13 38.36 13 35.72 13 33 C11.35 33 9.7 33 8 33 C8 29.04 8 25.08 8 21 C6.68 21 5.36 21 4 21 C4 16.71 4 12.42 4 8 C2.68 8 1.36 8 0 8 C0 5.36 0 2.72 0 0 Z " fill="#FDFDFE" transform="translate(220,344)"/>
<path d="M0 0 C6.6 0 13.2 0 20 0 C20 1.32 20 2.64 20 4 C24.29 4 28.58 4 33 4 C33 5.32 33 6.64 33 8 C34.32 8 35.64 8 37 8 C37 9.32 37 10.64 37 12 C38.32 12 39.64 12 41 12 C41 14.64 41 17.28 41 20 C42.32 20 43.64 20 45 20 C45 29.57 45 39.14 45 49 C43.68 49 42.36 49 41 49 C41 51.97 41 54.94 41 58 C39.68 58 38.36 58 37 58 C37 59.32 37 60.64 37 62 C35.68 62 34.36 62 33 62 C33 63.32 33 64.64 33 66 C30.03 66 27.06 66 24 66 C24 67.32 24 68.64 24 70 C16.08 70 8.16 70 0 70 C0 68.68 0 67.36 0 66 C-2.97 66 -5.94 66 -9 66 C-9 64.68 -9 63.36 -9 62 C-10.32 62 -11.64 62 -13 62 C-13 60.68 -13 59.36 -13 58 C-14.32 58 -15.64 58 -17 58 C-17 56.68 -17 55.36 -17 54 C-18.32 54 -19.64 54 -21 54 C-21 51.03 -21 48.06 -21 45 C-22.32 45 -23.64 45 -25 45 C-25 38.4 -25 31.8 -25 25 C-23.68 25 -22.36 25 -21 25 C-21 22.03 -21 19.06 -21 16 C-19.68 16 -18.36 16 -17 16 C-17 14.68 -17 13.36 -17 12 C-15.68 12 -14.36 12 -13 12 C-13 10.68 -13 9.36 -13 8 C-11.68 8 -10.36 8 -9 8 C-9 6.68 -9 5.36 -9 4 C-6.03 4 -3.06 4 0 4 C0 2.68 0 1.36 0 0 Z " fill="#E91886" transform="translate(593,365)"/>
<path d="M0 0 C10.89 0 21.78 0 33 0 C33 1.32 33 2.64 33 4 C34.65 4 36.3 4 38 4 C38 5.32 38 6.64 38 8 C39.32 8 40.64 8 42 8 C42 9.32 42 10.64 42 12 C43.32 12 44.64 12 46 12 C46 23.22 46 34.44 46 46 C44.68 46 43.36 46 42 46 C42 47.32 42 48.64 42 50 C40.68 50 39.36 50 38 50 C38 51.32 38 52.64 38 54 C36.35 54 34.7 54 33 54 C33 55.32 33 56.64 33 58 C30.36 58 27.72 58 25 58 C25 59.32 25 60.64 25 62 C18.07 62 11.14 62 4 62 C4 60.68 4 59.36 4 58 C2.68 58 1.36 58 0 58 C0 56.68 0 55.36 0 54 C-2.64 54 -5.28 54 -8 54 C-8 51.36 -8 48.72 -8 46 C-9.32 46 -10.64 46 -12 46 C-12 43.03 -12 40.06 -12 37 C-13.32 37 -14.64 37 -16 37 C-16 31.72 -16 26.44 -16 21 C-14.68 21 -13.36 21 -12 21 C-12 18.03 -12 15.06 -12 12 C-10.68 12 -9.36 12 -8 12 C-8 10.68 -8 9.36 -8 8 C-6.68 8 -5.36 8 -4 8 C-4 6.68 -4 5.36 -4 4 C-2.68 4 -1.36 4 0 4 C0 2.68 0 1.36 0 0 Z " fill="#E81685" transform="translate(232,489)"/>
<path d="M0 0 C10.89 0 21.78 0 33 0 C33 1.32 33 2.64 33 4 C34.32 4 35.64 4 37 4 C37 5.32 37 6.64 37 8 C38.65 8 40.3 8 42 8 C42 9.32 42 10.64 42 12 C43.32 12 44.64 12 46 12 C46 23.22 46 34.44 46 46 C44.68 46 43.36 46 42 46 C42 47.32 42 48.64 42 50 C40.68 50 39.36 50 38 50 C38 51.32 38 52.64 38 54 C36.35 54 34.7 54 33 54 C33 55.32 33 56.64 33 58 C30.36 58 27.72 58 25 58 C25 59.32 25 60.64 25 62 C18.07 62 11.14 62 4 62 C4 60.68 4 59.36 4 58 C2.68 58 1.36 58 0 58 C0 56.68 0 55.36 0 54 C-1.32 54 -2.64 54 -4 54 C-4 52.68 -4 51.36 -4 50 C-5.32 50 -6.64 50 -8 50 C-8 48.68 -8 47.36 -8 46 C-9.32 46 -10.64 46 -12 46 C-12.33 43.36 -12.66 40.72 -13 38 C-13.99 38 -14.98 38 -16 38 C-16 32.39 -16 26.78 -16 21 C-14.68 21 -13.36 21 -12 21 C-12 18.03 -12 15.06 -12 12 C-10.68 12 -9.36 12 -8 12 C-8 10.68 -8 9.36 -8 8 C-6.68 8 -5.36 8 -4 8 C-4 6.68 -4 5.36 -4 4 C-2.68 4 -1.36 4 0 4 C0 2.68 0 1.36 0 0 Z " fill="#E91685" transform="translate(377,489)"/>
<path d="M0 0 C1.32 0 2.64 0 4 0 C4 141.9 4 283.8 4 430 C2.68 430 1.36 430 0 430 C0 288.1 0 146.2 0 0 Z " fill="#E08ABC" transform="translate(87,183)"/>
<path d="M0 0 C1.65 0 3.3 0 5 0 C5 1.32 5 2.64 5 4 C0.71 4 -3.58 4 -8 4 C-8 5.32 -8 6.64 -8 8 C-143.3 8 -278.6 8 -418 8 C-418 6.68 -418 5.36 -418 4 C-280.06 3.67 -142.12 3.34 0 3 C0 2.01 0 1.02 0 0 Z " fill="#F2C0E2" transform="translate(526,626)"/>
<path d="M0 0 C136.62 0 273.24 0 414 0 C414 1.32 414 2.64 414 4 C277.38 4 140.76 4 0 4 C0 2.68 0 1.36 0 0 Z " fill="#DC017A" transform="translate(104,634)"/>
<path d="M0 0 C136.62 0 273.24 0 414 0 C414 1.32 414 2.64 414 4 C277.38 4 140.76 4 0 4 C0 2.68 0 1.36 0 0 Z " fill="#DB017C" transform="translate(108,162)"/>
<path d="M0 0 C135.3 0 270.6 0 410 0 C410 1.32 410 2.64 410 4 C274.7 4 139.4 4 0 4 C0 2.68 0 1.36 0 0 Z " fill="#EAB2D6" transform="translate(108,166)"/>
<path d="M0 0 C1.32 0 2.64 0 4 0 C4 129.69 4 259.38 4 393 C2.68 393 1.36 393 0 393 C0 263.31 0 133.62 0 0 Z " fill="#DE007D" transform="translate(83,187)"/>
<path d="M0 0 C0.33 0 0.66 0 1 0 C1 2.64 1 5.28 1 8 C-0.32 8.33 -1.64 8.66 -3 9 C-3 9.99 -3 10.98 -3 12 C-90.78 12 -178.56 12 -269 12 C-269 10.68 -269 9.36 -269 8 C-181.55 8 -94.1 8 -4 8 C-4 6.68 -4 5.36 -4 4 C-2.68 4 -1.36 4 0 4 C0 2.68 0 1.36 0 0 Z " fill="#F2CFE9" transform="translate(447,286)"/>
<path d="M0 0 C87.78 0 175.56 0 266 0 C266 1.32 266 2.64 266 4 C178.22 4 90.44 4 0 4 C0 2.68 0 1.36 0 0 Z " fill="#D30177" transform="translate(178,299)"/>
<path d="M0 0 C141.9 0 283.8 0 430 0 C430 1.32 430 2.64 430 4 C432.97 4 435.94 4 439 4 C439 5.32 439 6.64 439 8 C437.68 8 436.36 8 435 8 C435 7.01 435 6.02 435 5 C432.03 5 429.06 5 426 5 C426 5.99 426 6.98 426 8 C424.68 8 423.36 8 422 8 C422 5.69 422 3.38 422 1 C284.06 1 146.12 1 4 1 C4 3.31 4 5.62 4 8 C1.36 8 -1.28 8 -4 8 C-4.33 9.32 -4.66 10.64 -5 12 C-5.99 12 -6.98 12 -8 12 C-8 155.55 -8 299.1 -8 447 C-6.68 447 -5.36 447 -4 447 C-4 449.64 -4 452.28 -4 455 C-2.68 455.33 -1.36 455.66 0 456 C-1.65 456 -3.3 456 -5 456 C-5 454.68 -5 453.36 -5 452 C-6.32 452 -7.64 452 -9 452 C-9 305.48 -9 158.96 -9 8 C-7.68 8 -6.36 8 -5 8 C-5 6.68 -5 5.36 -5 4 C-3.35 4 -1.7 4 0 4 C0 2.68 0 1.36 0 0 Z " fill="#FCF5FA" transform="translate(100,170)"/>
<path d="M0 0 C68.31 0 136.62 0 207 0 C207 1.32 207 2.64 207 4 C138.69 4 70.38 4 0 4 C0 2.68 0 1.36 0 0 Z " fill="#CA2F85" transform="translate(220,340)"/>
<path d="M0 0 C2.64 0 5.28 0 8 0 C8 1.32 8 2.64 8 4 C73.67 4 139.34 4 207 4 C205.68 4.33 204.36 4.66 203 5 C203 5.99 203 6.98 203 8 C138.65 8 74.3 8 8 8 C8 7.01 8 6.02 8 5 C5.36 4.67 2.72 4.34 0 4 C0 2.68 0 1.36 0 0 Z " fill="#D584B3" transform="translate(216,464)"/>
<path d="M0 0 C65.67 0 131.34 0 199 0 C199 1.32 199 2.64 199 4 C133.33 4 67.66 4 0 4 C0 2.68 0 1.36 0 0 Z " fill="#E60186" transform="translate(224,464)"/>
<path d="M0 0 C1.65 0 3.3 0 5 0 C5 1.32 5 2.64 5 4 C0.71 4 -3.58 4 -8 4 C-8 5.32 -8 6.64 -8 8 C-68.06 8 -128.12 8 -190 8 C-190 6.68 -190 5.36 -190 4 C-127.3 3.67 -64.6 3.34 0 3 C0 2.01 0 1.02 0 0 Z " fill="#ECB6D9" transform="translate(526,626)"/>
<path d="M0 0 C1.32 0 2.64 0 4 0 C4 1.32 4 2.64 4 4 C2.68 4 1.36 4 0 4 C0 5.32 0 6.64 0 8 C-49.17 8 -98.34 8 -149 8 C-149 6.68 -149 5.36 -149 4 C-99.83 3.67 -50.66 3.34 0 3 C0 2.01 0 1.02 0 0 Z " fill="#E39BC8" transform="translate(398,419)"/>
<path d="M0 0 C49.17 0 98.34 0 149 0 C149 1.32 149 2.64 149 4 C99.83 4 50.66 4 0 4 C0 2.68 0 1.36 0 0 Z " fill="#E7A1CA" transform="translate(108,166)"/>
<path d="M0 0 C43.89 0 87.78 0 133 0 C133 1.32 133 2.64 133 4 C89.11 4 45.22 4 0 4 C0 2.68 0 1.36 0 0 Z " fill="#E50082" transform="translate(261,427)"/>
<path d="M0 0 C0.33 0 0.66 0 1 0 C1.125 5.75 1.125 5.75 0 8 C-0.99 8 -1.98 8 -3 8 C-3 151.55 -3 295.1 -3 443 C-1.68 443 -0.36 443 1 443 C1 445.64 1 448.28 1 451 C2.32 451.33 3.64 451.66 5 452 C3.35 452 1.7 452 0 452 C0 450.68 0 449.36 0 448 C-1.32 448 -2.64 448 -4 448 C-4 301.48 -4 154.96 -4 4 C-2.68 4 -1.36 4 0 4 C0 2.68 0 1.36 0 0 Z " fill="#F2CEE2" transform="translate(95,174)"/>
<path d="M0 0 C1.32 0 2.64 0 4 0 C4 1.32 4 2.64 4 4 C3.01 4 2.02 4 1 4 C1 143.26 1 282.52 1 426 C1.99 426 2.98 426 4 426 C4 427.32 4 428.64 4 430 C2.68 430 1.36 430 0 430 C0 288.1 0 146.2 0 0 Z " fill="#DE62A8" transform="translate(87,183)"/>
<path d="M0 0 C0.99 0 1.98 0 3 0 C3 49.17 3 98.34 3 149 C2.01 149 1.02 149 0 149 C0 99.83 0 50.66 0 0 Z " fill="#DC7CB1" transform="translate(88,460)"/>
<path d="M0 0 C26.07 0 52.14 0 79 0 C79 1.32 79 2.64 79 4 C52.93 4 26.86 4 0 4 C0 2.68 0 1.36 0 0 Z " fill="#F8C8E5" transform="translate(108,630)"/>
<path d="M0 0 C0 1.65 0 3.3 0 5 C-90.42 5 -180.84 5 -274 5 C-274 6.32 -274 7.64 -274 9 C-275.32 9 -276.64 9 -278 9 C-278 7.35 -278 5.7 -278 4 C-187.58 4 -97.16 4 -4 4 C-4 3.01 -4 2.02 -4 1 C-1 0 -1 0 0 0 Z " fill="#E26BB1" transform="translate(448,294)"/>
<path d="M0 0 C23.43 0 46.86 0 71 0 C71 1.32 71 2.64 71 4 C47.57 4 24.14 4 0 4 C0 2.68 0 1.36 0 0 Z " fill="#DF8AB6" transform="translate(468,253)"/>
<path d="M0 0 C87.45 0 174.9 0 265 0 C265 0.33 265 0.66 265 1 C179.2 1 93.4 1 5 1 C5 1.99 5 2.98 5 4 C3.35 4 1.7 4 0 4 C0 2.68 0 1.36 0 0 Z " fill="#F7E0F1" transform="translate(178,294)"/>
<path d="M0 0 C1.65 0 3.3 0 5 0 C5 1.32 5 2.64 5 4 C6.32 4 7.64 4 9 4 C9 15.22 9 26.44 9 38 C7.68 38 6.36 38 5 38 C5 39.32 5 40.64 5 42 C3.68 42 2.36 42 1 42 C0.67 43.32 0.34 44.64 0 46 C0 41.71 0 37.42 0 33 C1.32 33 2.64 33 4 33 C4 23.76 4 14.52 4 5 C2.68 5 1.36 5 0 5 C0 3.35 0 1.7 0 0 Z " fill="#D61983" transform="translate(414,497)"/>
<path d="M0 0 C2.64 0 5.28 0 8 0 C8 1.32 8 2.64 8 4 C73.67 4 139.34 4 207 4 C207 4.33 207 4.66 207 5 C180.60117182 5.02334175 154.20234518 5.04098547 127.80350876 5.05181217 C115.54657395 5.05697241 103.28964554 5.06400994 91.03271484 5.07543945 C80.35182448 5.08539458 69.67093875 5.09185541 58.99004388 5.09408849 C53.3325876 5.09539418 47.6751446 5.09847115 42.01769257 5.10573006 C36.69576467 5.11250332 31.37385555 5.11461428 26.05192375 5.11310768 C24.09595831 5.11338342 22.13999226 5.11538081 20.18403053 5.11920547 C17.51855813 5.12416306 14.85315708 5.12299059 12.18768311 5.12025452 C11.40947197 5.12316736 10.63126083 5.1260802 9.82946754 5.12908131 C6.41556548 5.11957592 3.26224836 5.07951221 0 4 C0 2.68 0 1.36 0 0 Z " fill="#DB59A5" transform="translate(216,464)"/>
<path d="M0 0 C16.5 0 33 0 50 0 C48.68 0.33 47.36 0.66 46 1 C46 2.32 46 3.64 46 5 C30.82 5 15.64 5 0 5 C0 3.35 0 1.7 0 0 Z " fill="#E065A7" transform="translate(493,298)"/>
<path d="M0 0 C68.31 0 136.62 0 207 0 C207 2.64 207 5.28 207 8 C205.68 8 204.36 8 203 8 C203 6.68 203 5.36 203 4 C203.99 4 204.98 4 206 4 C206 3.01 206 2.02 206 1 C138.02 1 70.04 1 0 1 C0 0.67 0 0.34 0 0 Z " fill="#FAE4F3" transform="translate(220,344)"/>
<path d="M0 0 C1.32 0 2.64 0 4 0 C4 1.32 4 2.64 4 4 C-61.67 4 -127.34 4 -195 4 C-195 3.67 -195 3.34 -195 3 C-130.65 3 -66.3 3 0 3 C0 2.01 0 1.02 0 0 Z " fill="#E9C2DA" transform="translate(419,469)"/>
<path d="M0 0 C1.32 0 2.64 0 4 0 C4 2.64 4 5.28 4 8 C2.68 8 1.36 8 0 8 C0 11.96 0 15.92 0 20 C-1.32 20 -2.64 20 -4 20 C-3.98839844 20.60328125 -3.97679687 21.2065625 -3.96484375 21.828125 C-3.95130859 23.02695312 -3.95130859 23.02695312 -3.9375 24.25 C-3.92589844 25.03890625 -3.91429687 25.8278125 -3.90234375 26.640625 C-3.99614694 28.90691002 -4.36758937 30.8288895 -5 33 C-5.99 33 -6.98 33 -8 33 C-8 36.96 -8 40.92 -8 45 C-9.32 45 -10.64 45 -12 45 C-12.33 46.32 -12.66 47.64 -13 49 C-13 45.04 -13 41.08 -13 37 C-11.68 37 -10.36 37 -9 37 C-9 32.71 -9 28.42 -9 24 C-7.68 24 -6.36 24 -5 24 C-4.67 18.72 -4.34 13.44 -4 8 C-3.01 8 -2.02 8 -1 8 C-0.67 5.36 -0.34 2.72 0 0 Z " fill="#DC59A0" transform="translate(419,361)"/>
<path d="M0 0 C19.14 0 38.28 0 58 0 C58 0.99 58 1.98 58 3 C38.86 3 19.72 3 0 3 C0 2.01 0 1.02 0 0 Z " fill="#E50082" transform="translate(481,258)"/>
<path d="M0 0 C1.32 0 2.64 0 4 0 C4 0.99 4 1.98 4 3 C50.53 3 97.06 3 145 3 C145 2.01 145 1.02 145 0 C146.32 0 147.64 0 149 0 C149 1.32 149 2.64 149 4 C99.83 4 50.66 4 0 4 C0 2.68 0 1.36 0 0 Z " fill="#E390C3" transform="translate(249,423)"/>
<path d="M0 0 C31.32040447 -0.20638953 31.32040447 -0.20638953 45 1 C45 1.99 45 2.98 45 4 C30.15 4 15.3 4 0 4 C0 2.68 0 1.36 0 0 Z " fill="#E10180" transform="translate(493,294)"/>
<path d="M0 0 C1.32 0 2.64 0 4 0 C4 0.99 4 1.98 4 3 C47.89 3 91.78 3 137 3 C137 3.33 137 3.66 137 4 C91.79 4 46.58 4 0 4 C0 2.68 0 1.36 0 0 Z " fill="#F9E9F3" transform="translate(245,419)"/>
<path d="M0 0 C28.71 0 57.42 0 87 0 C87 0.33 87 0.66 87 1 C59.61 1 32.22 1 4 1 C4 3.31 4 5.62 4 8 C1.36 8 -1.28 8 -4 8 C-4 6.68 -4 5.36 -4 4 C-2.68 4 -1.36 4 0 4 C0 2.68 0 1.36 0 0 Z " fill="#FCF4F9" transform="translate(100,170)"/>
<path d="M0 0 C0.33 0 0.66 0 1 0 C1 2.64 1 5.28 1 8 C2.32 8 3.64 8 5 8 C5 12.29 5 16.58 5 21 C5.99 21 6.98 21 8 21 C9.3271261 24.9813783 9.06915913 28.85045227 9 33 C10.32 33 11.64 33 13 33 C13 37.29 13 41.58 13 46 C12.67 44.68 12.34 43.36 12 42 C10.68 42 9.36 42 8 42 C8 37.71 8 33.42 8 29 C6.68 29 5.36 29 4 29 C4 23.72 4 18.44 4 13 C2.68 13 1.36 13 0 13 C0 8.71 0 4.42 0 0 Z " fill="#D54793" transform="translate(232,377)"/>
<path d="M0 0 C0.33 1.32 0.66 2.64 1 4 C2.32 4 3.64 4 5 4 C5 7.96 5 11.92 5 16 C6.32 16.33 7.64 16.66 9 17 C9 20.96 9 24.92 9 29 C10.32 29 11.64 29 13 29 C13 31.64 13 34.28 13 37 C14.32 37 15.64 37 17 37 C17 39.64 17 42.28 17 45 C15.68 45 14.36 45 13 45 C12.03929566 42.11788698 11.89418117 40.30149956 11.9375 37.3125 C11.94652344 36.50425781 11.95554688 35.69601562 11.96484375 34.86328125 C11.97644531 34.24839844 11.98804688 33.63351562 12 33 C10.68 33 9.36 33 8 33 C8 29.04 8 25.08 8 21 C6.68 21 5.36 21 4 21 C4 16.71 4 12.42 4 8 C2.68 8 1.36 8 0 8 C0 5.36 0 2.72 0 0 Z " fill="#EFC1E0" transform="translate(178,369)"/>
<path d="M0 0 C1.32 0 2.64 0 4 0 C4 4.29 4 8.58 4 13 C4.99 13 5.98 13 7 13 C7 16.96 7 20.92 7 25 C6.01 25 5.02 25 4 25 C4 27.97 4 30.94 4 34 C2.68 34 1.36 34 0 34 C-0.33 36.64 -0.66 39.28 -1 42 C-2.32 42 -3.64 42 -5 42 C-5 40.35 -5 38.7 -5 37 C-3.68 37 -2.36 37 -1 37 C-1 35.02 -1 33.04 -1 31 C0.32 30.67 1.64 30.34 3 30 C3 21.42 3 12.84 3 4 C2.01 4 1.02 4 0 4 C0 2.68 0 1.36 0 0 Z " fill="#ECB6D7" transform="translate(705,381)"/>
<path d="M0 0 C0.33 0 0.66 0 1 0 C1 27.06 1 54.12 1 82 C2.32 82 3.64 82 5 82 C5 84.64 5 87.28 5 90 C6.32 90.33 7.64 90.66 9 91 C7.35 91 5.7 91 4 91 C4 89.68 4 88.36 4 87 C2.68 87 1.36 87 0 87 C0 58.29 0 29.58 0 0 Z " fill="#EFBDDB" transform="translate(91,535)"/>
<path d="M0 0 C1.32 0 2.64 0 4 0 C4 1.65 4 3.3 4 5 C3.01 5 2.02 5 1 5 C1 5.99 1 6.98 1 8 C1.99 8.33 2.98 8.66 4 9 C3.01 9 2.02 9 1 9 C0.67 12.96 0.34 16.92 0 21 C-1.32 21 -2.64 21 -4 21 C-4 18.36 -4 15.72 -4 13 C-5.32 13 -6.64 13 -8 13 C-8 11.68 -8 10.36 -8 9 C-6.68 9 -5.36 9 -4 9 C-4 7.35 -4 5.7 -4 4 C-2.68 4 -1.36 4 0 4 C0 2.68 0 1.36 0 0 Z " fill="#DB1C89" transform="translate(551,609)"/>
<path d="M0 0 C2.64 0 5.28 0 8 0 C8 2.64 8 5.28 8 8 C6.68 8 5.36 8 4 8 C4 10.64 4 13.28 4 16 C2.68 16 1.36 16 0 16 C0 14.68 0 13.36 0 12 C-1.32 12 -2.64 12 -4 12 C-4 10.68 -4 9.36 -4 8 C-2.68 8 -1.36 8 0 8 C0 5.36 0 2.72 0 0 Z " fill="#DE3090" transform="translate(564,191)"/>
<path d="M0 0 C0.33 0 0.66 0 1 0 C1 2.97 1 5.94 1 9 C-0.32 9 -1.64 9 -3 9 C-3 12.96 -3 16.92 -3 21 C-4.32 21 -5.64 21 -7 21 C-6.98839844 21.98742187 -6.97679687 22.97484375 -6.96484375 23.9921875 C-6.95582031 25.27351563 -6.94679688 26.55484375 -6.9375 27.875 C-6.92589844 29.15117187 -6.91429687 30.42734375 -6.90234375 31.7421875 C-7 35 -7 35 -8 37 C-8.99 37 -9.98 37 -11 37 C-11 38.65 -11 40.3 -11 42 C-11.33 42 -11.66 42 -12 42 C-12 37.71 -12 33.42 -12 29 C-10.68 29 -9.36 29 -8 29 C-8 25.04 -8 21.08 -8 17 C-6.68 17 -5.36 17 -4 17 C-4 12.71 -4 8.42 -4 4 C-2.68 4 -1.36 4 0 4 C0 2.68 0 1.36 0 0 Z " fill="#D85CA3" transform="translate(451,410)"/>
<path d="M0 0 C1.32 0 2.64 0 4 0 C4 5.61 4 11.22 4 17 C1.36 17 -1.28 17 -4 17 C-4 14.36 -4 11.72 -4 9 C-2.68 9 -1.36 9 0 9 C0 6.03 0 3.06 0 0 Z " fill="#E3298D" transform="translate(191,381)"/>
<path d="M0 0 C1.32 0 2.64 0 4 0 C4 4.29 4 8.58 4 13 C5.32 13 6.64 13 8 13 C8 15.64 8 18.28 8 21 C6.68 21 5.36 21 4 21 C4 19.68 4 18.36 4 17 C2.68 17 1.36 17 0 17 C0 11.39 0 5.78 0 0 Z " fill="#CF3286" transform="translate(220,352)"/>
<path d="M0 0 C7.92 0 15.84 0 24 0 C24 1.32 24 2.64 24 4 C16.08 4 8.16 4 0 4 C0 2.68 0 1.36 0 0 Z " fill="#D05394" transform="translate(593,431)"/>
<path d="M0 0 C11.22 0 22.44 0 34 0 C34 1.65 34 3.3 34 5 C31.03 5 28.06 5 25 5 C25 3.68 25 2.36 25 1 C18.4 1 11.8 1 5 1 C5 2.32 5 3.64 5 5 C2.03 5 -0.94 5 -4 5 C-2.68 4.67 -1.36 4.34 0 4 C0 2.68 0 1.36 0 0 Z " fill="#F2CDE5" transform="translate(588,364)"/>
<path d="M0 0 C0.33 0 0.66 0 1 0 C1.07654536 4.51617599 1.10228696 8.59085217 0 13 C-0.99 13.33 -1.98 13.66 -3 14 C-3.33 14.66 -3.66 15.32 -4 16 C-6.64 16 -9.28 16 -12 16 C-12 14.68 -12 13.36 -12 12 C-10.68 12 -9.36 12 -8 12 C-8 10.68 -8 9.36 -8 8 C-6.68 8 -5.36 8 -4 8 C-4 6.68 -4 5.36 -4 4 C-2.68 4 -1.36 4 0 4 C0 2.68 0 1.36 0 0 Z " fill="#E33E98" transform="translate(700,423)"/>
<path d="M0 0 C1.32 0 2.64 0 4 0 C4 1.65 4 3.3 4 5 C2.68 5 1.36 5 0 5 C0 7.64 0 10.28 0 13 C-1.32 13 -2.64 13 -4 13 C-4 14.32 -4 15.64 -4 17 C-5.65 17 -7.3 17 -9 17 C-9 15.35 -9 13.7 -9 12 C-7.68 12 -6.36 12 -5 12 C-5 9.69 -5 7.38 -5 5 C-3.35 4.67 -1.7 4.34 0 4 C0 2.68 0 1.36 0 0 Z " fill="#F2C8E4" transform="translate(568,584)"/>
<path d="M0 0 C6.93 0 13.86 0 21 0 C21 1.32 21 2.64 21 4 C14.07 4 7.14 4 0 4 C0 2.68 0 1.36 0 0 Z " fill="#D571A8" transform="translate(381,547)"/>
<path d="M0 0 C6.93 0 13.86 0 21 0 C21 1.32 21 2.64 21 4 C14.07 4 7.14 4 0 4 C0 2.68 0 1.36 0 0 Z " fill="#DC71A2" transform="translate(236,547)"/>
<path d="M0 0 C0 1.65 0 3.3 0 5 C-1.32 5 -2.64 5 -4 5 C-4 6.32 -4 7.64 -4 9 C-5.32 9 -6.64 9 -8 9 C-8 10.32 -8 11.64 -8 13 C-9.65 13 -11.3 13 -13 13 C-13 11.68 -13 10.36 -13 9 C-11.68 9 -10.36 9 -9 9 C-9 7.68 -9 6.36 -9 5 C-9.99 4.67 -10.98 4.34 -12 4 C-11.01 4 -10.02 4 -9 4 C-9 3.01 -9 2.02 -9 1 C-5.92677456 0.08941469 -3.19902639 -0.08886184 0 0 Z " fill="#D81582" transform="translate(278,530)"/>
<path d="M0 0 C1.32 0 2.64 0 4 0 C4 6.93 4 13.86 4 21 C2.68 21 1.36 21 0 21 C0 14.07 0 7.14 0 0 Z " fill="#C94593" transform="translate(162,311)"/>
<path d="M0 0 C1.32 0 2.64 0 4 0 C4 1.32 4 2.64 4 4 C1.36 4 -1.28 4 -4 4 C-4 4.99 -4 5.98 -4 7 C-9.61 7 -15.22 7 -21 7 C-21 6.01 -21 5.02 -21 4 C-16.5621439 2.88834768 -12.23043614 2.88472237 -7.6875 2.9375 C-6.94693359 2.94201172 -6.20636719 2.94652344 -5.44335938 2.95117188 C-3.62887101 2.96287825 -1.81442466 2.98081102 0 3 C0 2.01 0 1.02 0 0 Z " fill="#E8A2CB" transform="translate(398,419)"/>
<path d="M0 0 C1.32 0 2.64 0 4 0 C4 6.6 4 13.2 4 20 C2.68 20 1.36 20 0 20 C0 13.4 0 6.8 0 0 Z " fill="#D40279" transform="translate(634,390)"/>
<path d="M0 0 C1.32 0 2.64 0 4 0 C4 6.6 4 13.2 4 20 C2.68 20 1.36 20 0 20 C0 13.4 0 6.8 0 0 Z " fill="#E08CBC" transform="translate(568,390)"/>
<path d="M0 0 C2.64 0 5.28 0 8 0 C8 1.32 8 2.64 8 4 C9.32 4 10.64 4 12 4 C12 5.32 12 6.64 12 8 C8.04 8 4.08 8 0 8 C0 5.36 0 2.72 0 0 Z " fill="#F6EBF5" transform="translate(547,191)"/>
<path d="M0 0 C1.32 0 2.64 0 4 0 C4 1.32 4 2.64 4 4 C5.65 4 7.3 4 9 4 C8.67 6.97 8.34 9.94 8 13 C6.68 13 5.36 13 4 13 C4 11.68 4 10.36 4 9 C2.68 9 1.36 9 0 9 C0 6.03 0 3.06 0 0 Z " fill="#DA278A" transform="translate(663,323)"/>
<path d="M0 0 C0.33 1.32 0.66 2.64 1 4 C1.99 4 2.98 4 4 4 C4 9.61 4 15.22 4 21 C3.01 21 2.02 21 1 21 C0.67 22.32 0.34 23.64 0 25 C0 16.75 0 8.5 0 0 Z " fill="#DC62A1" transform="translate(551,265)"/>
<path d="M0 0 C1.65 0 3.3 0 5 0 C5 1.32 5 2.64 5 4 C6.32 4 7.64 4 9 4 C9 5.32 9 6.64 9 8 C10.32 8 11.64 8 13 8 C13 10.97 13 13.94 13 17 C12.67 15.68 12.34 14.36 12 13 C10.68 13 9.36 13 8 13 C8 11.35 8 9.7 8 8 C6.68 8 5.36 8 4 8 C4 7.01 4 6.02 4 5 C2.68 5 1.36 5 0 5 C0 3.35 0 1.7 0 0 Z " fill="#D53587" transform="translate(265,493)"/>
<path d="M0 0 C1.65 0 3.3 0 5 0 C5 2.64 5 5.28 5 8 C6.32 8.33 7.64 8.66 9 9 C9 10.32 9 11.64 9 13 C10.32 13 11.64 13 13 13 C13 14.32 13 15.64 13 17 C11.35 17 9.7 17 8 17 C8 15.68 8 14.36 8 13 C6.68 13 5.36 13 4 13 C4 10.36 4 7.72 4 5 C2.68 5 1.36 5 0 5 C0 3.35 0 1.7 0 0 Z " fill="#ECBEDC" transform="translate(613,265)"/>
<path d="M0 0 C1.32 0 2.64 0 4 0 C4 6.6 4 13.2 4 20 C3.67 19.01 3.34 18.02 3 17 C2.01 17 1.02 17 0 17 C0 11.39 0 5.78 0 0 Z " fill="#D972AC" transform="translate(361,510)"/>
<path d="M0 0 C2.31 0 4.62 0 7 0 C7 1.32 7 2.64 7 4 C4.69 4 2.38 4 0 4 C0 5.32 0 6.64 0 8 C0.99 8 1.98 8 3 8 C3 9.32 3 10.64 3 12 C1.68 12 0.36 12 -1 12 C-1 10.68 -1 9.36 -1 8 C-2.32 8 -3.64 8 -5 8 C-5 6.35 -5 4.7 -5 3 C-3.68 3 -2.36 3 -1 3 C-0.67 2.01 -0.34 1.02 0 0 Z " fill="#E2489B" transform="translate(581,216)"/>
<path d="M0 0 C2.64 0 5.28 0 8 0 C8 1.32 8 2.64 8 4 C-7.18 4 -22.36 4 -38 4 C-38 3.67 -38 3.34 -38 3 C-25.46 3 -12.92 3 0 3 C0 2.01 0 1.02 0 0 Z " fill="#EBB9D4" transform="translate(531,299)"/>
<path d="M0 0 C1.32 0 2.64 0 4 0 C4 1.32 4 2.64 4 4 C3.01 4 2.02 4 1 4 C0.67 7.96 0.34 11.92 0 16 C-1.32 16 -2.64 16 -4 16 C-4 12.04 -4 8.08 -4 4 C-2.68 4 -1.36 4 0 4 C0 2.68 0 1.36 0 0 Z " fill="#C62B82" transform="translate(468,357)"/>
<path d="M0 0 C1.65 0 3.3 0 5 0 C5 1.32 5 2.64 5 4 C3.68 4 2.36 4 1 4 C1 9.28 1 14.56 1 20 C2.32 20 3.64 20 5 20 C5 22.97 5 25.94 5 29 C4.67 27.68 4.34 26.36 4 25 C2.68 25 1.36 25 0 25 C0 16.75 0 8.5 0 0 Z " fill="#E8B6D4" transform="translate(215,506)"/>
<path d="M0 0 C1.65 0 3.3 0 5 0 C5 1.32 5 2.64 5 4 C3.68 4 2.36 4 1 4 C1 7.96 1 11.92 1 16 C-0.32 16 -1.64 16 -3 16 C-3 17.65 -3 19.3 -3 21 C-3.33 21 -3.66 21 -4 21 C-4.0272415 19.58344207 -4.04650467 18.16672955 -4.0625 16.75 C-4.07410156 15.96109375 -4.08570313 15.1721875 -4.09765625 14.359375 C-4.00385306 12.09308998 -3.63241063 10.1711105 -3 8 C-2.01 8 -1.02 8 0 8 C0 5.36 0 2.72 0 0 Z " fill="#DB63A5" transform="translate(476,336)"/>
<path d="M0 0 C6.93 0 13.86 0 21 0 C21 0.33 21 0.66 21 1 C15.39 1 9.78 1 4 1 C4 3.31 4 5.62 4 8 C1.36 8 -1.28 8 -4 8 C-4 6.68 -4 5.36 -4 4 C-2.68 4 -1.36 4 0 4 C0 2.68 0 1.36 0 0 Z " fill="#F6D5EB" transform="translate(100,170)"/>
<path d="M0 0 C1.32 0 2.64 0 4 0 C4 5.28 4 10.56 4 16 C2.68 16 1.36 16 0 16 C0 10.72 0 5.44 0 0 Z " fill="#E6AECE" transform="translate(278,510)"/>
<path d="M0 0 C1.32 0 2.64 0 4 0 C4 5.28 4 10.56 4 16 C2.68 16 1.36 16 0 16 C0 10.72 0 5.44 0 0 Z " fill="#E4A8CD" transform="translate(423,510)"/>
<path d="M0 0 C1.32 0 2.64 0 4 0 C4 5.28 4 10.56 4 16 C2.68 16 1.36 16 0 16 C0 10.72 0 5.44 0 0 Z " fill="#D35799" transform="translate(216,510)"/>
<path d="M0 0 C5.28 0 10.56 0 16 0 C16 1.32 16 2.64 16 4 C10.72 4 5.44 4 0 4 C0 2.68 0 1.36 0 0 Z " fill="#DEA8C8" transform="translate(386,485)"/>
<path d="M0 0 C5.28 0 10.56 0 16 0 C16 1.32 16 2.64 16 4 C10.72 4 5.44 4 0 4 C0 2.68 0 1.36 0 0 Z " fill="#E5A1C7" transform="translate(241,485)"/>
<path d="M0 0 C1.32 0 2.64 0 4 0 C4 5.28 4 10.56 4 16 C2.68 16 1.36 16 0 16 C0 10.72 0 5.44 0 0 Z " fill="#E1007E" transform="translate(572,398)"/>
<path d="M0 0 C5.28 0 10.56 0 16 0 C16 1.32 16 2.64 16 4 C10.72 4 5.44 4 0 4 C0 2.68 0 1.36 0 0 Z " fill="#EC138D" transform="translate(597,369)"/>
<path d="M0 0 C1.32 0 2.64 0 4 0 C4 2.64 4 5.28 4 8 C2.68 8 1.36 8 0 8 C-0.33 10.64 -0.66 13.28 -1 16 C-1.99 16 -2.98 16 -4 16 C-4 13.36 -4 10.72 -4 8 C-3.01 8 -2.02 8 -1 8 C-0.67 5.36 -0.34 2.72 0 0 Z " fill="#F2C2E2" transform="translate(419,361)"/>
<path d="M0 0 C1.32 0 2.64 0 4 0 C4 1.32 4 2.64 4 4 C5.32 4 6.64 4 8 4 C8 6.64 8 9.28 8 12 C6.68 12 5.36 12 4 12 C4 10.68 4 9.36 4 8 C2.68 8 1.36 8 0 8 C0 5.36 0 2.72 0 0 Z " fill="#EC138D" transform="translate(452,274)"/>
<path d="M0 0 C1.32 0 2.64 0 4 0 C4 1.65 4 3.3 4 5 C2.68 5 1.36 5 0 5 C0 8.96 0 12.92 0 17 C-1.32 17 -2.64 17 -4 17 C-4 14.36 -4 11.72 -4 9 C-3.01 9 -2.02 9 -1 9 C-1.020625 7.700625 -1.04125 6.40125 -1.0625 5.0625 C-1.08399454 3.70834367 -1.07148199 2.35243917 -1 1 C-0.67 0.67 -0.34 0.34 0 0 Z " fill="#F3C7E5" transform="translate(452,269)"/>
<path d="M0 0 C1.65 0 3.3 0 5 0 C5 4.29 5 8.58 5 13 C6.32 13 7.64 13 9 13 C9 15.64 9 18.28 9 21 C8.67 19.68 8.34 18.36 8 17 C6.68 17 5.36 17 4 17 C4 13.04 4 9.08 4 5 C2.68 5 1.36 5 0 5 C0 3.35 0 1.7 0 0 Z " fill="#E078B3" transform="translate(203,439)"/>
<path d="M0 0 C0.33 1.32 0.66 2.64 1 4 C1.99 4 2.98 4 4 4 C4 5.32 4 6.64 4 8 C3.01 8 2.02 8 1 8 C1 13.61 1 19.22 1 25 C-0.65 25 -2.3 25 -4 25 C-4 23.35 -4 21.7 -4 20 C-2.68 20 -1.36 20 0 20 C0 13.4 0 6.8 0 0 Z " fill="#F0C4E2" transform="translate(638,394)"/>
<path d="M0 0 C0.33 0 0.66 0 1 0 C1 1.65 1 3.3 1 5 C1.99 5 2.98 5 4 5 C5.06723961 8.46222615 5.10173486 11.64039266 5.0625 15.25 C5.05347656 16.32765625 5.04445313 17.4053125 5.03515625 18.515625 C5.02355469 19.33546875 5.01195312 20.1553125 5 21 C3.68 21 2.36 21 1 21 C1 19.68 1 18.36 1 17 C1.99 17 2.98 17 4 17 C4 15.68 4 14.36 4 13 C3.01 13 2.02 13 1 13 C0.1276588 10.00519083 -0.10829766 7.36424089 -0.0625 4.25 C-0.05347656 3.45078125 -0.04445313 2.6515625 -0.03515625 1.828125 C-0.02355469 1.22484375 -0.01195312 0.6215625 0 0 Z " fill="#F8D9EF" transform="translate(638,385)"/>
<path d="M0 0 C0.33 0 0.66 0 1 0 C1 2.64 1 5.28 1 8 C2.32 8 3.64 8 5 8 C5 12.29 5 16.58 5 21 C5.99 21 6.98 21 8 21 C8 22.32 8 23.64 8 25 C6.68 25 5.36 25 4 25 C4 21.04 4 17.08 4 13 C2.68 13 1.36 13 0 13 C0 8.71 0 4.42 0 0 Z " fill="#ECB6D7" transform="translate(232,377)"/>
<path d="M0 0 C1.32 0 2.64 0 4 0 C4 1.32 4 2.64 4 4 C6.97 4 9.94 4 13 4 C13 5.32 13 6.64 13 8 C11.68 8 10.36 8 9 8 C9 7.01 9 6.02 9 5 C6.03 5 3.06 5 0 5 C0 5.99 0 6.98 0 8 C-1.32 8 -2.64 8 -4 8 C-4 6.68 -4 5.36 -4 4 C-2.68 4 -1.36 4 0 4 C0 2.68 0 1.36 0 0 Z " fill="#EFCCE3" transform="translate(526,170)"/>
<path d="M0 0 C0.33 0 0.66 0 1 0 C1 6.6 1 13.2 1 20 C1.99 20 2.98 20 4 20 C4 21.65 4 23.3 4 25 C2.68 25 1.36 25 0 25 C0 20.71 0 16.42 0 12 C-1.32 12 -2.64 12 -4 12 C-4 10.68 -4 9.36 -4 8 C-2.68 8 -1.36 8 0 8 C0 5.36 0 2.72 0 0 Z " fill="#DC4394" transform="translate(174,340)"/>
<path d="M0 0 C2.64 0 5.28 0 8 0 C8 2.97 8 5.94 8 9 C6.68 9 5.36 9 4 9 C4 7.68 4 6.36 4 5 C2.68 5 1.36 5 0 5 C0 3.35 0 1.7 0 0 Z " fill="#D84096" transform="translate(547,182)"/>
<path d="M0 0 C1.65 0 3.3 0 5 0 C5 1.32 5 2.64 5 4 C6.32 4 7.64 4 9 4 C9 5.32 9 6.64 9 8 C6.03 8 3.06 8 0 8 C0 5.36 0 2.72 0 0 Z " fill="#D74095" transform="translate(621,369)"/>
<path d="M0 0 C0.33 1.32 0.66 2.64 1 4 C2.32 4 3.64 4 5 4 C5 5.32 5 6.64 5 8 C6.32 8 7.64 8 9 8 C9 9.32 9 10.64 9 12 C10.32 12 11.64 12 13 12 C13 13.65 13 15.3 13 17 C11.68 17 10.36 17 9 17 C9 15.68 9 14.36 9 13 C7.68 13 6.36 13 5 13 C4.67 10.36 4.34 7.72 4 5 C2.68 5 1.36 5 0 5 C0 3.35 0 1.7 0 0 Z " fill="#EEB0D7" transform="translate(675,344)"/>
<path d="M0 0 C1.32 0 2.64 0 4 0 C4 2.64 4 5.28 4 8 C1.03 8 -1.94 8 -5 8 C-5 6.68 -5 5.36 -5 4 C-4.0409375 3.8453125 -4.0409375 3.8453125 -3.0625 3.6875 C-2.381875 3.460625 -1.70125 3.23375 -1 3 C-0.67 2.01 -0.34 1.02 0 0 Z " fill="#E20D82" transform="translate(593,423)"/>
<path d="M0 0 C0.33 0 0.66 0 1 0 C1 2.64 1 5.28 1 8 C-0.32 8 -1.64 8 -3 8 C-3 10.97 -3 13.94 -3 17 C-4.65 17 -6.3 17 -8 17 C-8 15.35 -8 13.7 -8 12 C-6.68 12 -5.36 12 -4 12 C-4 9.36 -4 6.72 -4 4 C-2.68 4 -1.36 4 0 4 C0 2.68 0 1.36 0 0 Z " fill="#D466A7" transform="translate(418,373)"/>
<path d="M0 0 C1.32 0 2.64 0 4 0 C4 1.32 4 2.64 4 4 C5.32 4 6.64 4 8 4 C8 5.32 8 6.64 8 8 C6.68 8 5.36 8 4 8 C4 13.61 4 19.22 4 25 C3.67 25 3.34 25 3 25 C3 18.07 3 11.14 3 4 C2.01 4 1.02 4 0 4 C0 2.68 0 1.36 0 0 Z " fill="#F3E1F1" transform="translate(158,303)"/>
<path d="M0 0 C1.32 0 2.64 0 4 0 C4 4.29 4 8.58 4 13 C2.68 13 1.36 13 0 13 C0 8.71 0 4.42 0 0 Z " fill="#DC0D79" transform="translate(365,501)"/>
<path d="M0 0 C2.64 0 5.28 0 8 0 C8 2.64 8 5.28 8 8 C6.35 8 4.7 8 3 8 C3 6.68 3 5.36 3 4 C2.01 4 1.02 4 0 4 C0 2.68 0 1.36 0 0 Z " fill="#D20E7E" transform="translate(701,373)"/>
<path d="M0 0 C5.61 0 11.22 0 17 0 C17 0.99 17 1.98 17 3 C11.39 3 5.78 3 0 3 C0 2.01 0 1.02 0 0 Z " fill="#D89BBF" transform="translate(224,469)"/>
<path d="M0 0 C5.61 0 11.22 0 17 0 C17 0.99 17 1.98 17 3 C11.39 3 5.78 3 0 3 C0 2.01 0 1.02 0 0 Z " fill="#DF93BC" transform="translate(493,299)"/>
<path d="M0 0 C1.32 0 2.64 0 4 0 C4 1.65 4 3.3 4 5 C3.01 5 2.02 5 1 5 C1 5.99 1 6.98 1 8 C1.99 8.33 2.98 8.66 4 9 C3.01 9 2.02 9 1 9 C0.67 9.99 0.34 10.98 0 12 C0 11.01 0 10.02 0 9 C-1.32 9 -2.64 9 -4 9 C-4 7.35 -4 5.7 -4 4 C-2.68 4 -1.36 4 0 4 C0 2.68 0 1.36 0 0 Z " fill="#DB57A2" transform="translate(551,609)"/>
<path d="M0 0 C1.32 0 2.64 0 4 0 C4 2.64 4 5.28 4 8 C1.36 8 -1.28 8 -4 8 C-4 6.68 -4 5.36 -4 4 C-2.68 4 -1.36 4 0 4 C0 2.68 0 1.36 0 0 Z " fill="#D30E7E" transform="translate(539,622)"/>
<path d="M0 0 C1.32 0 2.64 0 4 0 C4 2.64 4 5.28 4 8 C1.36 8 -1.28 8 -4 8 C-4 6.68 -4 5.36 -4 4 C-2.68 4 -1.36 4 0 4 C0 2.68 0 1.36 0 0 Z " fill="#D12480" transform="translate(605,543)"/>
<path d="M0 0 C1.32 0 2.64 0 4 0 C4 2.64 4 5.28 4 8 C1.36 8 -1.28 8 -4 8 C-4 6.68 -4 5.36 -4 4 C-2.68 4 -1.36 4 0 4 C0 2.68 0 1.36 0 0 Z " fill="#D64F99" transform="translate(630,510)"/>
<path d="M0 0 C0.99 0 1.98 0 3 0 C3 5.28 3 10.56 3 16 C2.01 16 1.02 16 0 16 C0 10.72 0 5.44 0 0 Z " fill="#E2007E" transform="translate(419,510)"/>
<path d="M0 0 C1.65 0 3.3 0 5 0 C5 1.32 5 2.64 5 4 C6.32 4 7.64 4 9 4 C9 5.65 9 7.3 9 9 C7.35 8.67 5.7 8.34 4 8 C4 7.01 4 6.02 4 5 C2.68 5 1.36 5 0 5 C0 3.35 0 1.7 0 0 Z " fill="#CD4494" transform="translate(414,497)"/>
<path d="M0 0 C1.65 0 3.3 0 5 0 C4.67 1.65 4.34 3.3 4 5 C-5.24 5 -14.48 5 -24 5 C-24 4.67 -24 4.34 -24 4 C-16.08 4 -8.16 4 0 4 C0 2.68 0 1.36 0 0 Z " fill="#F4D8EC" transform="translate(617,431)"/>
<path d="M0 0 C2.64 0 5.28 0 8 0 C8 2.64 8 5.28 8 8 C6.68 8 5.36 8 4 8 C4 6.68 4 5.36 4 4 C2.68 4 1.36 4 0 4 C0 2.68 0 1.36 0 0 Z " fill="#D0227F" transform="translate(576,419)"/>
<path d="M0 0 C1.32 0 2.64 0 4 0 C4 2.64 4 5.28 4 8 C1.36 8 -1.28 8 -4 8 C-4 6.68 -4 5.36 -4 4 C-2.68 4 -1.36 4 0 4 C0 2.68 0 1.36 0 0 Z " fill="#CF157A" transform="translate(580,373)"/>
<path d="M0 0 C1.32 0 2.64 0 4 0 C4 1.32 4 2.64 4 4 C5.32 4 6.64 4 8 4 C8 5.32 8 6.64 8 8 C5.36 8 2.72 8 0 8 C0 5.36 0 2.72 0 0 Z " fill="#ECB2D5" transform="translate(688,361)"/>
<path d="M0 0 C3.96 0 7.92 0 12 0 C12 1.32 12 2.64 12 4 C8.04 4 4.08 4 0 4 C0 2.68 0 1.36 0 0 Z " fill="#C61279" transform="translate(601,365)"/>
<path d="M0 0 C2.64 0 5.28 0 8 0 C8 1.32 8 2.64 8 4 C6.68 4 5.36 4 4 4 C4 5.32 4 6.64 4 8 C2.68 8 1.36 8 0 8 C0 5.36 0 2.72 0 0 Z " fill="#E30E7C" transform="translate(655,311)"/>
<path d="M0 0 C1.32 0 2.64 0 4 0 C4 3.96 4 7.92 4 12 C2.68 12 1.36 12 0 12 C0 8.04 0 4.08 0 0 Z " fill="#EFE8F2" transform="translate(638,299)"/>
<path d="M0 0 C1.32 0 2.64 0 4 0 C4 3.96 4 7.92 4 12 C2.68 12 1.36 12 0 12 C0 8.04 0 4.08 0 0 Z " fill="#D30076" transform="translate(485,299)"/>
<path d="M0 0 C1.32 0 2.64 0 4 0 C4 1.32 4 2.64 4 4 C5.32 4 6.64 4 8 4 C8 5.32 8 6.64 8 8 C5.36 8 2.72 8 0 8 C0 5.36 0 2.72 0 0 Z " fill="#F3D2EA" transform="translate(601,253)"/>
<path d="M0 0 C0.33 0 0.66 0 1 0 C1.02698189 1.62490954 1.04638757 3.24994633 1.0625 4.875 C1.07410156 5.77992188 1.08570313 6.68484375 1.09765625 7.6171875 C1 10 1 10 0 12 C-0.99 12 -1.98 12 -3 12 C-3 13.65 -3 15.3 -3 17 C-3.33 17 -3.66 17 -4 17 C-4 12.71 -4 8.42 -4 4 C-2.68 4 -1.36 4 0 4 C0 2.68 0 1.36 0 0 Z " fill="#F0BFDF" transform="translate(443,435)"/>
<path d="M0 0 C1.32 0 2.64 0 4 0 C4 1.65 4 3.3 4 5 C2.68 5 1.36 5 0 5 C0 7.64 0 10.28 0 13 C-1.32 13 -2.64 13 -4 13 C-4 11.35 -4 9.7 -4 8 C-3.01 8 -2.02 8 -1 8 C-0.67 5.36 -0.34 2.72 0 0 Z " fill="#E7ABD1" transform="translate(568,584)"/>
<path d="M0 0 C1.65 0 3.3 0 5 0 C5 1.32 5 2.64 5 4 C5.99 4.33 6.98 4.66 8 5 C5.36 5 2.72 5 0 5 C0 5.99 0 6.98 0 8 C-1.32 8 -2.64 8 -4 8 C-4 6.68 -4 5.36 -4 4 C-2.68 4 -1.36 4 0 4 C0 2.68 0 1.36 0 0 Z " fill="#CF3D8F" transform="translate(377,489)"/>
<path d="M0 0 C1.32 0 2.64 0 4 0 C4 1.65 4 3.3 4 5 C2.68 5 1.36 5 0 5 C0 7.64 0 10.28 0 13 C-1.32 13 -2.64 13 -4 13 C-4 11.35 -4 9.7 -4 8 C-3.01 8 -2.02 8 -1 8 C-0.67 5.36 -0.34 2.72 0 0 Z " fill="#F1BFDF" transform="translate(659,468)"/>
<path d="M0 0 C1.32 0 2.64 0 4 0 C4 6.6 4 13.2 4 20 C2.68 20 1.36 20 0 20 C0 18.68 0 17.36 0 16 C0.99 16 1.98 16 3 16 C3 12.04 3 8.08 3 4 C2.01 4 1.02 4 0 4 C0 2.68 0 1.36 0 0 Z " fill="#DC5FA2" transform="translate(709,390)"/>
<path d="M0 0 C1.32 0 2.64 0 4 0 C4 1.32 4 2.64 4 4 C3.01 4 2.02 4 1 4 C0.67 5.32 0.34 6.64 0 8 C0 5.36 0 2.72 0 0 Z M-8 8 C-5.36 8 -2.72 8 0 8 C-1.32 8.33 -2.64 8.66 -4 9 C-4 10.32 -4 11.64 -4 13 C-5.32 13 -6.64 13 -8 13 C-8 11.35 -8 9.7 -8 8 Z " fill="#E7057D" transform="translate(584,373)"/>
<path d="M0 0 C0.33 0 0.66 0 1 0 C1 3.96 1 7.92 1 12 C-0.32 12 -1.64 12 -3 12 C-3.33 13.32 -3.66 14.64 -4 16 C-4.14285714 7.42857143 -4.14285714 7.42857143 -3 4 C-2.01 4 -1.02 4 0 4 C0 2.68 0 1.36 0 0 Z " fill="#F1D0EA" transform="translate(472,357)"/>
<path d="M0 0 C1.32 0 2.64 0 4 0 C4 2.64 4 5.28 4 8 C5.32 8 6.64 8 8 8 C8 9.65 8 11.3 8 13 C6.68 13 5.36 13 4 13 C3.67 10.36 3.34 7.72 3 5 C2.01 5 1.02 5 0 5 C0 3.35 0 1.7 0 0 Z " fill="#F3CFE7" transform="translate(655,319)"/>
<path d="M0 0 C0.33 0 0.66 0 1 0 C1 2.64 1 5.28 1 8 C-0.32 8.33 -1.64 8.66 -3 9 C-3 9.99 -3 10.98 -3 12 C-4.65 12 -6.3 12 -8 12 C-8 11.01 -8 10.02 -8 9 C-6.68 9 -5.36 9 -4 9 C-4 7.35 -4 5.7 -4 4 C-2.68 4 -1.36 4 0 4 C0 2.68 0 1.36 0 0 Z " fill="#F3CEE9" transform="translate(447,286)"/>
<path d="M0 0 C0.33 1.32 0.66 2.64 1 4 C2.32 4 3.64 4 5 4 C5 5.32 5 6.64 5 8 C6.32 8 7.64 8 9 8 C9 9.65 9 11.3 9 13 C7.68 13 6.36 13 5 13 C4.896875 12.360625 4.79375 11.72125 4.6875 11.0625 C4.460625 10.381875 4.23375 9.70125 4 9 C3.01 8.67 2.02 8.34 1 8 C-0.35439668 5.29120665 -0.06501451 2.99066732 0 0 Z " fill="#E08ABC" transform="translate(588,232)"/>
<path d="M0 0 C1.32 0 2.64 0 4 0 C4 1.32 4 2.64 4 4 C6.31 4 8.62 4 11 4 C11 3.01 11 2.02 11 1 C10.01 0.67 9.02 0.34 8 0 C9.32 0 10.64 0 12 0 C12 1.65 12 3.3 12 5 C10.35 5 8.7 5 7 5 C7 5.99 7 6.98 7 8 C6.01 8 5.02 8 4 8 C3.67 7.01 3.34 6.02 3 5 C2.01 4.67 1.02 4.34 0 4 C0 2.68 0 1.36 0 0 Z " fill="#DD0B7D" transform="translate(639,294)"/>
<path d="M0 0 C1.65 0 3.3 0 5 0 C5 1.32 5 2.64 5 4 C-3.25 4 -11.5 4 -20 4 C-20 3.67 -20 3.34 -20 3 C-13.4 3 -6.8 3 0 3 C0 2.01 0 1.02 0 0 Z " fill="#FBEFF5" transform="translate(526,626)"/>
<path d="M0 0 C0.33 0 0.66 0 1 0 C1 2.64 1 5.28 1 8 C1.99 8 2.98 8 4 8 C4 5.69 4 3.38 4 1 C5.65 1 7.3 1 9 1 C9 2.32 9 3.64 9 5 C7.68 5 6.36 5 5 5 C5 6.32 5 7.64 5 9 C3.68 9 2.36 9 1 9 C0.67 10.32 0.34 11.64 0 13 C0 8.71 0 4.42 0 0 Z " fill="#D5579F" transform="translate(414,530)"/>
<path d="M0 0 C1.65 0 3.3 0 5 0 C5 2.64 5 5.28 5 8 C3.35 8 1.7 8 0 8 C0 5.36 0 2.72 0 0 Z " fill="#E5037D" transform="translate(439,398)"/>
<path d="M0 0 C0.99 0 1.98 0 3 0 C3 4.29 3 8.58 3 13 C2.01 13 1.02 13 0 13 C0 8.71 0 4.42 0 0 Z " fill="#D20D78" transform="translate(444,414)"/>
<path d="M0 0 C0.33 0 0.66 0 1 0 C1 5.61 1 11.22 1 17 C1.99 17 2.98 17 4 17 C4.33 19.64 4.66 22.28 5 25 C4.67 23.68 4.34 22.36 4 21 C2.68 20.67 1.36 20.34 0 20 C0 13.4 0 6.8 0 0 Z " fill="#F2D4E6" transform="translate(360,510)"/>
<path d="M0 0 C1.32 0 2.64 0 4 0 C4 1.32 4 2.64 4 4 C3.01 4 2.02 4 1 4 C1 5.32 1 6.64 1 8 C-0.65 8 -2.3 8 -4 8 C-4 6.68 -4 5.36 -4 4 C-2.68 4 -1.36 4 0 4 C0 2.68 0 1.36 0 0 Z " fill="#D10F7D" transform="translate(580,576)"/>
<path d="M0 0 C2.97 0 5.94 0 9 0 C9 1.32 9 2.64 9 4 C6.03 4 3.06 4 0 4 C0 2.68 0 1.36 0 0 Z " fill="#E59AC8" transform="translate(381,547)"/>
<path d="M0 0 C2.97 0 5.94 0 9 0 C9 1.32 9 2.64 9 4 C6.03 4 3.06 4 0 4 C0 2.68 0 1.36 0 0 Z " fill="#DD97BF" transform="translate(236,547)"/>
<path d="M0 0 C2.97 0 5.94 0 9 0 C9 1.32 9 2.64 9 4 C6.03 4 3.06 4 0 4 C0 2.68 0 1.36 0 0 Z " fill="#E30275" transform="translate(236,543)"/>
<path d="M0 0 C1.32 0 2.64 0 4 0 C4 0.99 4 1.98 4 3 C5.32 3 6.64 3 8 3 C8 4.65 8 6.3 8 8 C6.68 8 5.36 8 4 8 C4 6.68 4 5.36 4 4 C2.68 4 1.36 4 0 4 C0 2.68 0 1.36 0 0 Z " fill="#CF0979" transform="translate(369,535)"/>
<path d="M0 0 C1.32 0 2.64 0 4 0 C4 2.97 4 5.94 4 9 C2.68 9 1.36 9 0 9 C0 6.03 0 3.06 0 0 Z " fill="#C71278" transform="translate(220,526)"/>
<path d="M0 0 C1.32 0 2.64 0 4 0 C4 1.32 4 2.64 4 4 C5.32 4 6.64 4 8 4 C8 6.97 8 9.94 8 13 C7.67 11.68 7.34 10.36 7 9 C5.68 9 4.36 9 3 9 C3 6.36 3 3.72 3 1 C2.01 0.67 1.02 0.34 0 0 Z " fill="#D97FB1" transform="translate(270,497)"/>
<path d="M0 0 C1.32 0 2.64 0 4 0 C4 2.97 4 5.94 4 9 C2.68 9 1.36 9 0 9 C0 6.03 0 3.06 0 0 Z " fill="#C8438E" transform="translate(402,410)"/>
<path d="M0 0 C0.99 0 1.98 0 3 0 C3 0.99 3 1.98 3 3 C2.01 3 1.02 3 0 3 C-0.33 5.97 -0.66 8.94 -1 12 C-2.32 12 -3.64 12 -5 12 C-5 10.35 -5 8.7 -5 7 C-3.68 7 -2.36 7 -1 7 C-1.020625 6.030625 -1.04125 5.06125 -1.0625 4.0625 C-1 1 -1 1 0 0 Z " fill="#F0C4E2" transform="translate(705,411)"/>
<path d="M0 0 C0.99 0 1.98 0 3 0 C3 3.96 3 7.92 3 12 C2.01 12 1.02 12 0 12 C0 8.04 0 4.08 0 0 Z " fill="#E5007E" transform="translate(448,402)"/>
<path d="M0 0 C0.99 0 1.98 0 3 0 C3 3.96 3 7.92 3 12 C2.01 12 1.02 12 0 12 C0 8.04 0 4.08 0 0 Z " fill="#E08BBC" transform="translate(709,394)"/>
<path d="M0 0 C1.32 0 2.64 0 4 0 C4 2.97 4 5.94 4 9 C2.68 9 1.36 9 0 9 C0 6.03 0 3.06 0 0 Z " fill="#D6037A" transform="translate(456,381)"/>
<path d="M0 0 C0.33 1.32 0.66 2.64 1 4 C2.32 4 3.64 4 5 4 C5 7.96 5 11.92 5 16 C5.99 16.33 6.98 16.66 8 17 C6.68 17 5.36 17 4 17 C4 14.03 4 11.06 4 8 C2.68 8 1.36 8 0 8 C0 5.36 0 2.72 0 0 Z " fill="#E19AC3" transform="translate(178,369)"/>
<path d="M0 0 C2.97 0 5.94 0 9 0 C9 1.32 9 2.64 9 4 C6.03 4 3.06 4 0 4 C0 2.68 0 1.36 0 0 Z " fill="#D12F88" transform="translate(584,369)"/>
<path d="M0 0 C1.32 0 2.64 0 4 0 C4 2.97 4 5.94 4 9 C2.68 9 1.36 9 0 9 C0 6.03 0 3.06 0 0 Z " fill="#D25395" transform="translate(423,352)"/>
<path d="M0 0 C1.32 0 2.64 0 4 0 C4 2.97 4 5.94 4 9 C2.68 9 1.36 9 0 9 C0 6.03 0 3.06 0 0 Z " fill="#E5A0C9" transform="translate(481,323)"/>
<path d="M0 0 C6.93 0 13.86 0 21 0 C21 1.32 21 2.64 21 4 C19.35 4 17.7 4 16 4 C16 3.01 16 2.02 16 1 C10.72 1 5.44 1 0 1 C0 0.67 0 0.34 0 0 Z " fill="#D4157C" transform="translate(522,294)"/>
<path d="M0 0 C0.99 0 1.98 0 3 0 C3 2.97 3 5.94 3 9 C1.68 9 0.36 9 -1 9 C-1.09765625 2.84765625 -1.09765625 2.84765625 -1 1 C-0.67 0.67 -0.34 0.34 0 0 Z " fill="#E3027F" transform="translate(188,381)"/>
<path d="M0 0 C1.32 0 2.64 0 4 0 C4 2.64 4 5.28 4 8 C2.68 8.33 1.36 8.66 0 9 C0 6.03 0 3.06 0 0 Z " fill="#DE057B" transform="translate(175,348)"/>
<path d="M0 0 C0.99 0 1.98 0 3 0 C3 2.97 3 5.94 3 9 C1.68 9 0.36 9 -1 9 C-1.09765625 2.84765625 -1.09765625 2.84765625 -1 1 C-0.67 0.67 -0.34 0.34 0 0 Z " fill="#E1057B" transform="translate(477,323)"/>
<path d="M0 0 C0.99 0 1.98 0 3 0 C4.4783226 2.95664519 4.06032783 5.74229737 4 9 C2.68 9 1.36 9 0 9 C0 6.03 0 3.06 0 0 Z " fill="#E10482" transform="translate(208,439)"/>
<path d="M0 0 C0.33 0.99 0.66 1.98 1 3 C1.99 3 2.98 3 4 3 C4.33 2.01 4.66 1.02 5 0 C5 0.99 5 1.98 5 3 C5.99 3.33 6.98 3.66 8 4 C7.01 4 6.02 4 5 4 C5 5.32 5 6.64 5 8 C3.35 8 1.7 8 0 8 C0 5.36 0 2.72 0 0 Z " fill="#E157A2" transform="translate(642,299)"/>
<path d="M0 0 C1.65 0 3.3 0 5 0 C5 1.65 5 3.3 5 5 C5.99 5 6.98 5 8 5 C8 5.99 8 6.98 8 8 C6.68 8 5.36 8 4 8 C4 6.68 4 5.36 4 4 C2.68 4 1.36 4 0 4 C0 2.68 0 1.36 0 0 Z " fill="#F8D5F1" transform="translate(410,489)"/>
<path d="M0 0 C1.32 0 2.64 0 4 0 C4 0.99 4 1.98 4 3 C9.61 3 15.22 3 21 3 C21 3.33 21 3.66 21 4 C14.07 4 7.14 4 0 4 C0 2.68 0 1.36 0 0 Z " fill="#EED1E2" transform="translate(245,419)"/>
<path d="M0 0 C2.64 0 5.28 0 8 0 C8 1.32 8 2.64 8 4 C5.36 4 2.72 4 0 4 C0 2.68 0 1.36 0 0 Z " fill="#CE529A" transform="translate(518,630)"/>
<path d="M0 0 C2.64 0 5.28 0 8 0 C8 1.32 8 2.64 8 4 C5.36 4 2.72 4 0 4 C0 2.68 0 1.36 0 0 Z " fill="#DF308D" transform="translate(543,618)"/>
<path d="M0 0 C2.64 0 5.28 0 8 0 C8 1.32 8 2.64 8 4 C5.36 4 2.72 4 0 4 C0 2.68 0 1.36 0 0 Z " fill="#F8D8EE" transform="translate(402,547)"/>
<path d="M0 0 C2.64 0 5.28 0 8 0 C8 1.32 8 2.64 8 4 C5.36 4 2.72 4 0 4 C0 2.68 0 1.36 0 0 Z " fill="#CB1877" transform="translate(377,543)"/>
<path d="M0 0 C1.32 0.33 2.64 0.66 4 1 C3.01 1 2.02 1 1 1 C1 3.64 1 6.28 1 9 C-0.65 9 -2.3 9 -4 9 C-4 7.35 -4 5.7 -4 4 C-2.68 4 -1.36 4 0 4 C0 2.68 0 1.36 0 0 Z " fill="#DC6EAC" transform="translate(617,526)"/>
<path d="M0 0 C1.65 0 3.3 0 5 0 C5 1.65 5 3.3 5 5 C3.68 5 2.36 5 1 5 C1 6.32 1 7.64 1 9 C-0.32 8.67 -1.64 8.34 -3 8 C-2.01 8 -1.02 8 0 8 C0 5.36 0 2.72 0 0 Z " fill="#D971AD" transform="translate(273,530)"/>
<path d="M0 0 C1.32 0 2.64 0 4 0 C4 2.64 4 5.28 4 8 C2.68 8 1.36 8 0 8 C0 5.36 0 2.72 0 0 Z " fill="#F1BBDC" transform="translate(278,510)"/>
<path d="M0 0 C1.32 0 2.64 0 4 0 C4 2.64 4 5.28 4 8 C2.68 8 1.36 8 0 8 C0 5.36 0 2.72 0 0 Z " fill="#E00079" transform="translate(220,506)"/>
<path d="M0 0 C1.32 0 2.64 0 4 0 C4 2.64 4 5.28 4 8 C2.68 8 1.36 8 0 8 C0 5.36 0 2.72 0 0 Z " fill="#D60077" transform="translate(369,498)"/>
<path d="M0 0 C2.64 0 5.28 0 8 0 C8 1.32 8 2.64 8 4 C5.36 4 2.72 4 0 4 C0 2.68 0 1.36 0 0 Z " fill="#D9037B" transform="translate(382,489)"/>
<path d="M0 0 C2.64 0 5.28 0 8 0 C8 1.32 8 2.64 8 4 C5.36 4 2.72 4 0 4 C0 2.68 0 1.36 0 0 Z " fill="#D45A9F" transform="translate(257,489)"/>
<path d="M0 0 C2.64 0 5.28 0 8 0 C8 1.32 8 2.64 8 4 C5.36 4 2.72 4 0 4 C0 2.68 0 1.36 0 0 Z " fill="#D5027B" transform="translate(249,489)"/>
<path d="M0 0 C2.64 0 5.28 0 8 0 C8 1.32 8 2.64 8 4 C5.36 4 2.72 4 0 4 C0 2.68 0 1.36 0 0 Z " fill="#D00573" transform="translate(237,489)"/>
<path d="M0 0 C2.64 0 5.28 0 8 0 C8 1.32 8 2.64 8 4 C5.36 4 2.72 4 0 4 C0 2.68 0 1.36 0 0 Z " fill="#DF308D" transform="translate(659,473)"/>
<path d="M0 0 C2.64 0 5.28 0 8 0 C8 1.32 8 2.64 8 4 C5.36 4 2.72 4 0 4 C0 2.68 0 1.36 0 0 Z " fill="#CD5795" transform="translate(216,464)"/>
<path d="M0 0 C1.32 0 2.64 0 4 0 C4 2.64 4 5.28 4 8 C2.68 8 1.36 8 0 8 C0 5.36 0 2.72 0 0 Z " fill="#D1328B" transform="translate(676,452)"/>
<path d="M0 0 C1.32 0 2.64 0 4 0 C4 2.64 4 5.28 4 8 C2.68 8 1.36 8 0 8 C0 5.36 0 2.72 0 0 Z " fill="#DF0079" transform="translate(431,448)"/>
<path d="M0 0 C1.32 0 2.64 0 4 0 C4 2.64 4 5.28 4 8 C2.68 8 1.36 8 0 8 C0 5.36 0 2.72 0 0 Z " fill="#F70E84" transform="translate(423,448)"/>
<path d="M0 0 C1.32 0 2.64 0 4 0 C4 2.64 4 5.28 4 8 C2.68 8 1.36 8 0 8 C0 5.36 0 2.72 0 0 Z " fill="#D00177" transform="translate(212,452)"/>
<path d="M0 0 C2.64 0 5.28 0 8 0 C8 1.32 8 2.64 8 4 C5.36 4 2.72 4 0 4 C0 2.68 0 1.36 0 0 Z " fill="#DC2884" transform="translate(680,448)"/>
<path d="M0 0 C1.65 0 3.3 0 5 0 C5 1.32 5 2.64 5 4 C3.68 4 2.36 4 1 4 C1 5.32 1 6.64 1 8 C-0.32 8 -1.64 8 -3 8 C-3.33 9.32 -3.66 10.64 -4 12 C-4 10.35 -4 8.7 -4 7 C-2.68 7 -1.36 7 0 7 C0 4.69 0 2.38 0 0 Z " fill="#EDBEDB" transform="translate(679,444)"/>
<path d="M0 0 C2.64 0 5.28 0 8 0 C8 1.32 8 2.64 8 4 C5.36 4 2.72 4 0 4 C0 2.68 0 1.36 0 0 Z " fill="#D10075" transform="translate(613,427)"/>
<path d="M0 0 C2.64 0 5.28 0 8 0 C8 1.32 8 2.64 8 4 C5.36 4 2.72 4 0 4 C0 2.68 0 1.36 0 0 Z " fill="#E20080" transform="translate(249,427)"/>
<path d="M0 0 C1.32 0 2.64 0 4 0 C4 2.64 4 5.28 4 8 C2.68 8 1.36 8 0 8 C0 5.36 0 2.72 0 0 Z " fill="#EECCE6" transform="translate(195,419)"/>
<path d="M0 0 C1.32 0 2.64 0 4 0 C4 1.32 4 2.64 4 4 C-2.6 4 -9.2 4 -16 4 C-16 3.67 -16 3.34 -16 3 C-10.72 3 -5.44 3 0 3 C0 2.01 0 1.02 0 0 Z " fill="#EFC1DC" transform="translate(398,419)"/>
<path d="M0 0 C1.32 0 2.64 0 4 0 C4 2.64 4 5.28 4 8 C2.68 8 1.36 8 0 8 C0 5.36 0 2.72 0 0 Z " fill="#F1CAE6" transform="translate(452,406)"/>
<path d="M0 0 C1.32 0 2.64 0 4 0 C4 2.64 4 5.28 4 8 C2.68 8 1.36 8 0 8 C0 5.36 0 2.72 0 0 Z " fill="#CB1978" transform="translate(191,398)"/>
<path d="M0 0 C1.32 0 2.64 0 4 0 C4 2.64 4 5.28 4 8 C2.68 8 1.36 8 0 8 C0 5.36 0 2.72 0 0 Z " fill="#E7007C" transform="translate(713,398)"/>
<path d="M0 0 C1.32 0 2.64 0 4 0 C4 2.64 4 5.28 4 8 C2.68 8 1.36 8 0 8 C0 5.36 0 2.72 0 0 Z " fill="#E3BBD5" transform="translate(456,394)"/>
<path d="M0 0 C1.32 0 2.64 0 4 0 C4 2.64 4 5.28 4 8 C2.68 8 1.36 8 0 8 C0 5.36 0 2.72 0 0 Z " fill="#DA017B" transform="translate(232,394)"/>
<path d="M0 0 C1.32 0 2.64 0 4 0 C4 2.64 4 5.28 4 8 C2.68 8 1.36 8 0 8 C0 5.36 0 2.72 0 0 Z " fill="#CF4892" transform="translate(572,381)"/>
<path d="M0 0 C1.32 0 2.64 0 4 0 C4 2.64 4 5.28 4 8 C2.68 8 1.36 8 0 8 C0 5.36 0 2.72 0 0 Z " fill="#E597C4" transform="translate(460,381)"/>
<path d="M0 0 C1.32 0 2.64 0 4 0 C4 2.64 4 5.28 4 8 C2.68 8 1.36 8 0 8 C0 5.36 0 2.72 0 0 Z " fill="#D50178" transform="translate(228,382)"/>
<path d="M0 0 C1.32 0 2.64 0 4 0 C4 2.64 4 5.28 4 8 C2.68 8 1.36 8 0 8 C0 5.36 0 2.72 0 0 Z " fill="#DC0079" transform="translate(460,369)"/>
<path d="M0 0 C1.32 0 2.64 0 4 0 C4 2.64 4 5.28 4 8 C2.68 8 1.36 8 0 8 C0 5.36 0 2.72 0 0 Z " fill="#CF0779" transform="translate(419,369)"/>
<path d="M0 0 C1.32 0 2.64 0 4 0 C4 2.64 4 5.28 4 8 C2.68 8 1.36 8 0 8 C0 5.36 0 2.72 0 0 Z " fill="#DE017A" transform="translate(183,373)"/>
<path d="M0 0 C2.64 0 5.28 0 8 0 C8 1.32 8 2.64 8 4 C5.36 4 2.72 4 0 4 C0 2.68 0 1.36 0 0 Z " fill="#D6007B" transform="translate(613,369)"/>
<path d="M0 0 C2.64 0 5.28 0 8 0 C8 1.32 8 2.64 8 4 C5.36 4 2.72 4 0 4 C0 2.68 0 1.36 0 0 Z " fill="#E598C5" transform="translate(613,365)"/>
<path d="M0 0 C2.64 0 5.28 0 8 0 C8 1.32 8 2.64 8 4 C5.36 4 2.72 4 0 4 C0 2.68 0 1.36 0 0 Z " fill="#CF4692" transform="translate(593,365)"/>
<path d="M0 0 C1.32 0 2.64 0 4 0 C4 2.64 4 5.28 4 8 C2.68 8 1.36 8 0 8 C0 5.36 0 2.72 0 0 Z " fill="#E287BB" transform="translate(419,361)"/>
<path d="M0 0 C1.32 0 2.64 0 4 0 C4 2.64 4 5.28 4 8 C2.68 8 1.36 8 0 8 C0 5.36 0 2.72 0 0 Z " fill="#DA037A" transform="translate(179,361)"/>
<path d="M0 0 C1.32 0 2.64 0 4 0 C4 2.64 4 5.28 4 8 C2.68 8 1.36 8 0 8 C0 5.36 0 2.72 0 0 Z " fill="#D276A7" transform="translate(220,352)"/>
<path d="M0 0 C1.32 0 2.64 0 4 0 C4 2.64 4 5.28 4 8 C2.68 8 1.36 8 0 8 C0 5.36 0 2.72 0 0 Z " fill="#D70179" transform="translate(427,348)"/>
<path d="M0 0 C1.32 0 2.64 0 4 0 C4 2.64 4 5.28 4 8 C2.68 8 1.36 8 0 8 C0 5.36 0 2.72 0 0 Z " fill="#D70278" transform="translate(468,348)"/>
<path d="M0 0 C1.32 0 2.64 0 4 0 C4 2.64 4 5.28 4 8 C2.68 8 1.36 8 0 8 C0 5.36 0 2.72 0 0 Z " fill="#F3CEE8" transform="translate(166,340)"/>
<path d="M0 0 C1.32 0 2.64 0 4 0 C4 2.64 4 5.28 4 8 C2.68 8 1.36 8 0 8 C0 5.36 0 2.72 0 0 Z " fill="#D30278" transform="translate(472,336)"/>
<path d="M0 0 C1.32 0 2.64 0 4 0 C4 2.64 4 5.28 4 8 C2.68 8 1.36 8 0 8 C0 5.36 0 2.72 0 0 Z " fill="#F4CEEA" transform="translate(485,315)"/>
<path d="M0 0 C1.32 0 2.64 0 4 0 C4 2.64 4 5.28 4 8 C2.68 8 1.36 8 0 8 C0 5.36 0 2.72 0 0 Z " fill="#EDB9DD" transform="translate(489,303)"/>
<path d="M0 0 C1.32 0 2.64 0 4 0 C4 2.64 4 5.28 4 8 C2.68 8 1.36 8 0 8 C0 5.36 0 2.72 0 0 Z " fill="#CE2C81" transform="translate(448,286)"/>
<path d="M0 0 C1.32 0 2.64 0 4 0 C4 2.64 4 5.28 4 8 C2.68 8 1.36 8 0 8 C0 5.36 0 2.72 0 0 Z " fill="#DC007A" transform="translate(452,282)"/>
<path d="M0 0 C1.32 0 2.64 0 4 0 C4 2.64 4 5.28 4 8 C2.68 8 1.36 8 0 8 C0 5.36 0 2.72 0 0 Z " fill="#D1418E" transform="translate(452,274)"/>
<path d="M0 0 C1.65 0 3.3 0 5 0 C5 2.64 5 5.28 5 8 C5.99 8.33 6.98 8.66 8 9 C6.68 9 5.36 9 4 9 C4 7.68 4 6.36 4 5 C2.68 5 1.36 5 0 5 C0 3.35 0 1.7 0 0 Z " fill="#DD74AD" transform="translate(613,265)"/>
<path d="M0 0 C1.32 0 2.64 0 4 0 C4 2.64 4 5.28 4 8 C2.68 8 1.36 8 0 8 C0 5.36 0 2.72 0 0 Z " fill="#F80E84" transform="translate(572,191)"/>
<path d="M0 0 C2.64 0 5.28 0 8 0 C8 1.32 8 2.64 8 4 C5.36 4 2.72 4 0 4 C0 2.68 0 1.36 0 0 Z " fill="#F3E7F5" transform="translate(96,174)"/>
<path d="M0 0 C2.64 0 5.28 0 8 0 C8 1.32 8 2.64 8 4 C5.36 4 2.72 4 0 4 C0 2.68 0 1.36 0 0 Z " fill="#D24B91" transform="translate(518,166)"/>
<path d="M0 0 C1.32 0 2.64 0 4 0 C4 2.31 4 4.62 4 7 C2.68 7 1.36 7 0 7 C0 4.69 0 2.38 0 0 Z " fill="#E00179" transform="translate(622,523)"/>
<path d="M0 0 C1.32 0 2.64 0 4 0 C4 2.31 4 4.62 4 7 C2.68 7 1.36 7 0 7 C0 4.69 0 2.38 0 0 Z " fill="#DA0076" transform="translate(543,262)"/>
<path d="M0 0 C1.32 0 2.64 0 4 0 C4 1.32 4 2.64 4 4 C5.32 4 6.64 4 8 4 C8 5.65 8 7.3 8 9 C6.68 9 5.36 9 4 9 C3.67 6.36 3.34 3.72 3 1 C2.01 0.67 1.02 0.34 0 0 Z " fill="#F4C1E5" transform="translate(564,207)"/>
<path d="M0 0 C1.32 0 2.64 0 4 0 C4 0.99 4 1.98 4 3 C5.32 3.33 6.64 3.66 8 4 C6.68 4 5.36 4 4 4 C4 5.32 4 6.64 4 8 C2.68 7.67 1.36 7.34 0 7 C0.99 7 1.98 7 3 7 C3 6.01 3 5.02 3 4 C2.01 4 1.02 4 0 4 C0 2.68 0 1.36 0 0 Z " fill="#F3EEF3" transform="translate(626,506)"/>
<path d="M0 0 C2.97 0 5.94 0 9 0 C9 0.99 9 1.98 9 3 C6.03 3 3.06 3 0 3 C0 2.01 0 1.02 0 0 Z " fill="#E196BD" transform="translate(522,299)"/>
<path d="M0 0 C1.65 0 3.3 0 5 0 C4.67 1.32 4.34 2.64 4 4 C3.01 4 2.02 4 1 4 C1 6.64 1 9.28 1 12 C0.67 12 0.34 12 0 12 C0 8.04 0 4.08 0 0 Z " fill="#DE2588" transform="translate(559,187)"/>
<path d="M0 0 C0.33 1.32 0.66 2.64 1 4 C2.32 4 3.64 4 5 4 C5 5.65 5 7.3 5 9 C5.99 9 6.98 9 8 9 C8 10.32 8 11.64 8 13 C7.01 13 6.02 13 5 13 C4.67 10.36 4.34 7.72 4 5 C2.68 5 1.36 5 0 5 C0 3.35 0 1.7 0 0 Z " fill="#F4D2EA" transform="translate(675,344)"/>
<path d="M0 0 C1.65 0 3.3 0 5 0 C5 1.65 5 3.3 5 5 C3.35 5 1.7 5 0 5 C0 3.35 0 1.7 0 0 Z " fill="#EEB2D7" transform="translate(588,559)"/>
<path d="M0 0 C1.32 0.33 2.64 0.66 4 1 C3.67 3.31 3.34 5.62 3 8 C2.01 8 1.02 8 0 8 C0 5.36 0 2.72 0 0 Z " fill="#CC1C7D" transform="translate(415,530)"/>
<path d="M0 0 C1.65 0 3.3 0 5 0 C5 1.32 5 2.64 5 4 C3.68 4 2.36 4 1 4 C1 5.65 1 7.3 1 9 C0.67 9 0.34 9 0 9 C0 6.03 0 3.06 0 0 Z " fill="#E787BE" transform="translate(472,348)"/>
<path d="M0 0 C2.64 0 5.28 0 8 0 C6.68 0.33 5.36 0.66 4 1 C4 2.32 4 3.64 4 5 C2.68 5 1.36 5 0 5 C0 3.35 0 1.7 0 0 Z " fill="#F7D4ED" transform="translate(539,617)"/>
<path d="M0 0 C0.33 0 0.66 0 1 0 C1 2.64 1 5.28 1 8 C-0.65 8 -2.3 8 -4 8 C-4 6.68 -4 5.36 -4 4 C-2.68 4 -1.36 4 0 4 C0 2.68 0 1.36 0 0 Z " fill="#C84494" transform="translate(559,601)"/>
<path d="M0 0 C0.33 0 0.66 0 1 0 C1 2.64 1 5.28 1 8 C-0.65 8 -2.3 8 -4 8 C-4 6.68 -4 5.36 -4 4 C-2.68 4 -1.36 4 0 4 C0 2.68 0 1.36 0 0 Z " fill="#D65B9C" transform="translate(588,564)"/>
<path d="M0 0 C0.99 0 1.98 0 3 0 C3 2.64 3 5.28 3 8 C2.01 8 1.02 8 0 8 C0 5.36 0 2.72 0 0 Z " fill="#CF0074" transform="translate(274,522)"/>
<path d="M0 0 C0.99 0 1.98 0 3 0 C3 2.64 3 5.28 3 8 C2.01 8 1.02 8 0 8 C0 5.36 0 2.72 0 0 Z " fill="#D31179" transform="translate(274,506)"/>
<path d="M0 0 C1.65 0 3.3 0 5 0 C5 1.32 5 2.64 5 4 C3.68 4 2.36 4 1 4 C0.67 5.32 0.34 6.64 0 8 C0 5.36 0 2.72 0 0 Z " fill="#F0C8E6" transform="translate(646,485)"/>
<path d="M0 0 C1.32 0 2.64 0 4 0 C4 1.65 4 3.3 4 5 C1.36 5 -1.28 5 -4 5 C-2.68 4.67 -1.36 4.34 0 4 C0 2.68 0 1.36 0 0 Z " fill="#EBACD3" transform="translate(427,464)"/>
<path d="M0 0 C0.99 0 1.98 0 3 0 C3 2.64 3 5.28 3 8 C2.01 8 1.02 8 0 8 C0 5.36 0 2.72 0 0 Z " fill="#D31179" transform="translate(204,431)"/>
<path d="M0 0 C0.99 0 1.98 0 3 0 C3 2.64 3 5.28 3 8 C2.01 8 1.02 8 0 8 C0 5.36 0 2.72 0 0 Z " fill="#D80578" transform="translate(701,423)"/>
<path d="M0 0 C0.33 0 0.66 0 1 0 C1 2.64 1 5.28 1 8 C-0.65 8 -2.3 8 -4 8 C-4 6.68 -4 5.36 -4 4 C-2.68 4 -1.36 4 0 4 C0 2.68 0 1.36 0 0 Z " fill="#D73A8B" transform="translate(700,423)"/>
<path d="M0 0 C1.65 0 3.3 0 5 0 C5 1.32 5 2.64 5 4 C3.68 4 2.36 4 1 4 C0.67 5.32 0.34 6.64 0 8 C0 5.36 0 2.72 0 0 Z " fill="#DE7AB1" transform="translate(443,427)"/>
<path d="M0 0 C0.99 0 1.98 0 3 0 C3 2.64 3 5.28 3 8 C2.01 8 1.02 8 0 8 C0 5.36 0 2.72 0 0 Z " fill="#D90078" transform="translate(200,419)"/>
<path d="M0 0 C0.99 0 1.98 0 3 0 C3 2.64 3 5.28 3 8 C2.01 8 1.02 8 0 8 C0 5.36 0 2.72 0 0 Z " fill="#E20179" transform="translate(407,406)"/>
<path d="M0 0 C0.33 1.32 0.66 2.64 1 4 C1.99 4 2.98 4 4 4 C4 5.32 4 6.64 4 8 C3.01 8 2.02 8 1 8 C0.67 9.32 0.34 10.64 0 12 C0 8.04 0 4.08 0 0 Z " fill="#E8AED0" transform="translate(638,394)"/>
<path d="M0 0 C0.99 0 1.98 0 3 0 C3 2.64 3 5.28 3 8 C2.01 8 1.02 8 0 8 C0 5.36 0 2.72 0 0 Z " fill="#DF0081" transform="translate(411,394)"/>
<path d="M0 0 C0.33 1.32 0.66 2.64 1 4 C1.99 4 2.98 4 4 4 C4 5.65 4 7.3 4 9 C2.68 9 1.36 9 0 9 C0 6.03 0 3.06 0 0 Z " fill="#F5D3EB" transform="translate(704,381)"/>
<path d="M0 0 C1.65 0 3.3 0 5 0 C5 2.64 5 5.28 5 8 C4.67 6.68 4.34 5.36 4 4 C2.68 4 1.36 4 0 4 C0 2.68 0 1.36 0 0 Z " fill="#F0B2DC" transform="translate(182,386)"/>
<path d="M0 0 C0.99 0 1.98 0 3 0 C3 2.64 3 5.28 3 8 C2.01 8 1.02 8 0 8 C0 5.36 0 2.72 0 0 Z " fill="#D10277" transform="translate(216,348)"/>
<path d="M0 0 C0.99 0 1.98 0 3 0 C3 2.64 3 5.28 3 8 C2.01 8 1.02 8 0 8 C0 5.36 0 2.72 0 0 Z " fill="#D20273" transform="translate(171,340)"/>
<path d="M0 0 C0.33 1.32 0.66 2.64 1 4 C2.32 4 3.64 4 5 4 C5 5.32 5 6.64 5 8 C3.35 8 1.7 8 0 8 C0 5.36 0 2.72 0 0 Z " fill="#F1C8E6" transform="translate(646,307)"/>
<path d="M0 0 C0.33 1.32 0.66 2.64 1 4 C1.99 4 2.98 4 4 4 C4 5.65 4 7.3 4 9 C2.68 9 1.36 9 0 9 C0 6.03 0 3.06 0 0 Z " fill="#E497C4" transform="translate(551,265)"/>
<path d="M0 0 C0.33 1.32 0.66 2.64 1 4 C2.32 4 3.64 4 5 4 C5 5.32 5 6.64 5 8 C3.35 8 1.7 8 0 8 C0 5.36 0 2.72 0 0 Z " fill="#F7DCF3" transform="translate(596,245)"/>
<path d="M0 0 C0.33 0.99 0.66 1.98 1 3 C1.99 3 2.98 3 4 3 C4 4.65 4 6.3 4 8 C2.68 8 1.36 8 0 8 C0 5.36 0 2.72 0 0 Z " fill="#DD82B7" transform="translate(174,357)"/>
<path d="M0 0 C1.32 0 2.64 0 4 0 C4 1.32 4 2.64 4 4 C5.32 4.33 6.64 4.66 8 5 C5.69 5 3.38 5 1 5 C0.67 3.35 0.34 1.7 0 0 Z " fill="#F6D0EB" transform="translate(539,178)"/>
<path d="M0 0 C0.33 0 0.66 0 1 0 C1.125 5.75 1.125 5.75 0 8 C-2.0625 8.625 -2.0625 8.625 -4 9 C-4 7.35 -4 5.7 -4 4 C-2.68 4 -1.36 4 0 4 C0 2.68 0 1.36 0 0 Z " fill="#E893C9" transform="translate(95,174)"/>
<path d="M0 0 C0.33 0 0.66 0 1 0 C1 2.97 1 5.94 1 9 C-0.32 9 -1.64 9 -3 9 C-3 7.68 -3 6.36 -3 5 C-2.01 5 -1.02 5 0 5 C0 3.35 0 1.7 0 0 Z " fill="#F2BDDE" transform="translate(364,501)"/>
<path d="M0 0 C0.99 0 1.98 0 3 0 C3 2.31 3 4.62 3 7 C2.01 7 1.02 7 0 7 C0 4.69 0 2.38 0 0 Z " fill="#D5007A" transform="translate(668,465)"/>
<path d="M0 0 C2.31 0 4.62 0 7 0 C7 0.99 7 1.98 7 3 C4.69 3 2.38 3 0 3 C0 2.01 0 1.02 0 0 Z " fill="#E8A8CE" transform="translate(531,299)"/>
<path d="M0 0 C1.65 0 3.3 0 5 0 C5 1.32 5 2.64 5 4 C3.35 4 1.7 4 0 4 C0 2.68 0 1.36 0 0 Z " fill="#EDB3D9" transform="translate(526,626)"/>
<path d="M0 0 C1.65 0 3.3 0 5 0 C5 1.32 5 2.64 5 4 C3.35 4 1.7 4 0 4 C0 2.68 0 1.36 0 0 Z " fill="#DA0A81" transform="translate(555,609)"/>
<path d="M0 0 C1.32 0 2.64 0 4 0 C4 1.65 4 3.3 4 5 C2.68 5 1.36 5 0 5 C0 3.35 0 1.7 0 0 Z " fill="#D21376" transform="translate(593,559)"/>
<path d="M0 0 C1.65 0 3.3 0 5 0 C5 1.32 5 2.64 5 4 C3.35 4 1.7 4 0 4 C0 2.68 0 1.36 0 0 Z " fill="#E40181" transform="translate(385,543)"/>
<path d="M0 0 C1.65 0 3.3 0 5 0 C5 1.32 5 2.64 5 4 C3.35 4 1.7 4 0 4 C0 2.68 0 1.36 0 0 Z " fill="#CA3991" transform="translate(265,539)"/>
<path d="M0 0 C1.32 0 2.64 0 4 0 C4 1.65 4 3.3 4 5 C2.68 5 1.36 5 0 5 C0 3.35 0 1.7 0 0 Z " fill="#FBE7F9" transform="translate(609,530)"/>
<path d="M0 0 C1.32 0 2.64 0 4 0 C3.67 1.65 3.34 3.3 3 5 C2.01 5.33 1.02 5.66 0 6 C0 4.02 0 2.04 0 0 Z " fill="#FDE8FC" transform="translate(278,526)"/>
<path d="M0 0 C1.65 0 3.3 0 5 0 C5 1.32 5 2.64 5 4 C3.35 4 1.7 4 0 4 C0 2.68 0 1.36 0 0 Z " fill="#F0C6E3" transform="translate(617,522)"/>
<path d="M0 0 C1.32 0 2.64 0 4 0 C4 1.65 4 3.3 4 5 C2.68 5 1.36 5 0 5 C0 3.35 0 1.7 0 0 Z " fill="#F6C4E1" transform="translate(634,501)"/>
<path d="M0 0 C1.32 0 2.64 0 4 0 C4 1.65 4 3.3 4 5 C2.68 5 1.36 5 0 5 C0 3.35 0 1.7 0 0 Z " fill="#D98BB9" transform="translate(419,501)"/>
<path d="M0 0 C1.32 0 2.64 0 4 0 C4 1.65 4 3.3 4 5 C2.68 5 1.36 5 0 5 C0 3.35 0 1.7 0 0 Z " fill="#C8578F" transform="translate(365,501)"/>
<path d="M0 0 C1.32 0 2.64 0 4 0 C4 1.65 4 3.3 4 5 C2.68 5 1.36 5 0 5 C0 3.35 0 1.7 0 0 Z " fill="#C4428B" transform="translate(220,501)"/>
<path d="M0 0 C1.65 0 3.3 0 5 0 C5 1.32 5 2.64 5 4 C3.35 4 1.7 4 0 4 C0 2.68 0 1.36 0 0 Z " fill="#F6D8F1" transform="translate(381,485)"/>
<path d="M0 0 C1.65 0 3.3 0 5 0 C5 1.32 5 2.64 5 4 C3.35 4 1.7 4 0 4 C0 2.68 0 1.36 0 0 Z " fill="#F7D8F2" transform="translate(236,485)"/>
<path d="M0 0 C1.32 0 2.64 0 4 0 C4 1.65 4 3.3 4 5 C2.68 5 1.36 5 0 5 C0 3.35 0 1.7 0 0 Z " fill="#DA8CB9" transform="translate(203,439)"/>
<path d="M0 0 C1.65 0 3.3 0 5 0 C5 1.32 5 2.64 5 4 C3.35 4 1.7 4 0 4 C0 2.68 0 1.36 0 0 Z " fill="#F0C9E5" transform="translate(588,431)"/>
<path d="M0 0 C1.65 0 3.3 0 5 0 C5 1.32 5 2.64 5 4 C3.35 4 1.7 4 0 4 C0 2.68 0 1.36 0 0 Z " fill="#C90A76" transform="translate(588,427)"/>
<path d="M0 0 C1.32 0 2.64 0 4 0 C4 1.65 4 3.3 4 5 C2.68 5 1.36 5 0 5 C0 3.35 0 1.7 0 0 Z " fill="#CB0A84" transform="translate(630,414)"/>
<path d="M0 0 C1.32 0 2.64 0 4 0 C4 0.99 4 1.98 4 3 C5.32 3.33 6.64 3.66 8 4 C5.36 4 2.72 4 0 4 C0 2.68 0 1.36 0 0 Z " fill="#DE077E" transform="translate(576,415)"/>
<path d="M0 0 C1.32 0 2.64 0 4 0 C4 1.65 4 3.3 4 5 C2.68 5 1.36 5 0 5 C0 3.35 0 1.7 0 0 Z " fill="#FDE6FB" transform="translate(398,414)"/>
<path d="M0 0 C1.32 0 2.64 0 4 0 C4 1.65 4 3.3 4 5 C2.68 5 1.36 5 0 5 C0 3.35 0 1.7 0 0 Z " fill="#DB1E84" transform="translate(228,410)"/>
<path d="M0 0 C1.32 0 2.64 0 4 0 C4 1.32 4 2.64 4 4 C3.01 4 2.02 4 1 4 C0.67 5.32 0.34 6.64 0 8 C0 5.36 0 2.72 0 0 Z " fill="#D0388C" transform="translate(406,402)"/>
<path d="M0 0 C0.33 1.32 0.66 2.64 1 4 C1.99 4 2.98 4 4 4 C4 5.32 4 6.64 4 8 C2.68 8 1.36 8 0 8 C0 5.36 0 2.72 0 0 Z " fill="#E48AC1" transform="translate(236,394)"/>
<path d="M0 0 C1.32 0 2.64 0 4 0 C4 2.64 4 5.28 4 8 C3.67 6.68 3.34 5.36 3 4 C2.01 4 1.02 4 0 4 C0 2.68 0 1.36 0 0 Z " fill="#F6DAF1" transform="translate(237,394)"/>
<path d="M0 0 C1.32 0 2.64 0 4 0 C4 1.65 4 3.3 4 5 C2.68 5 1.36 5 0 5 C0 3.35 0 1.7 0 0 Z " fill="#D70277" transform="translate(572,389)"/>
<path d="M0 0 C1.32 0 2.64 0 4 0 C4 1.65 4 3.3 4 5 C2.68 5 1.36 5 0 5 C0 3.35 0 1.7 0 0 Z " fill="#C4599A" transform="translate(634,385)"/>
<path d="M0 0 C1.32 0 2.64 0 4 0 C4 1.65 4 3.3 4 5 C2.68 5 1.36 5 0 5 C0 3.35 0 1.7 0 0 Z " fill="#DF057E" transform="translate(709,381)"/>
<path d="M0 0 C1.32 0 2.64 0 4 0 C4 1.65 4 3.3 4 5 C2.68 5 1.36 5 0 5 C0 3.35 0 1.7 0 0 Z " fill="#CB0776" transform="translate(415,381)"/>
<path d="M0 0 C1.32 0 2.64 0 4 0 C4 1.65 4 3.3 4 5 C2.68 5 1.36 5 0 5 C0 3.35 0 1.7 0 0 Z " fill="#FC0B85" transform="translate(195,381)"/>
<path d="M0 0 C1.32 0 2.64 0 4 0 C4 1.32 4 2.64 4 4 C3.01 4 2.02 4 1 4 C0.67 5.32 0.34 6.64 0 8 C0 5.36 0 2.72 0 0 Z " fill="#EEB6DB" transform="translate(464,373)"/>
<path d="M0 0 C0.33 0 0.66 0 1 0 C1 2.64 1 5.28 1 8 C-0.32 8 -1.64 8 -3 8 C-3 6.68 -3 5.36 -3 4 C-2.01 4 -1.02 4 0 4 C0 2.68 0 1.36 0 0 Z " fill="#E9B1D4" transform="translate(472,357)"/>
<path d="M0 0 C1.32 0 2.64 0 4 0 C4 1.32 4 2.64 4 4 C3.01 4 2.02 4 1 4 C0.67 5.32 0.34 6.64 0 8 C0 5.36 0 2.72 0 0 Z " fill="#D963A5" transform="translate(468,357)"/>
<path d="M0 0 C1.32 0 2.64 0 4 0 C4 1.65 4 3.3 4 5 C2.68 5 1.36 5 0 5 C0 3.35 0 1.7 0 0 Z " fill="#E08EC0" transform="translate(162,327)"/>
<path d="M0 0 C1.32 0 2.64 0 4 0 C4 1.65 4 3.3 4 5 C2.68 5 1.36 5 0 5 C0 3.35 0 1.7 0 0 Z " fill="#EAB3D7" transform="translate(170,298)"/>
<path d="M0 0 C1.32 0 2.64 0 4 0 C4 1.32 4 2.64 4 4 C3.01 4 2.02 4 1 4 C0.67 5.32 0.34 6.64 0 8 C0 5.36 0 2.72 0 0 Z " fill="#E491C4" transform="translate(551,282)"/>
<path d="M0 0 C1.32 0 2.64 0 4 0 C4 1.65 4 3.3 4 5 C2.68 5 1.36 5 0 5 C0 3.35 0 1.7 0 0 Z " fill="#E9AAD1" transform="translate(452,269)"/>
<path d="M0 0 C1.32 0 2.64 0 4 0 C4 1.65 4 3.3 4 5 C2.68 5 1.36 5 0 5 C0 3.35 0 1.7 0 0 Z " fill="#C8187C" transform="translate(547,265)"/>
<path d="M0 0 C1.32 0 2.64 0 4 0 C4 1.65 4 3.3 4 5 C2.68 5 1.36 5 0 5 C0 3.35 0 1.7 0 0 Z " fill="#DB2889" transform="translate(572,211)"/>
<path d="M0 0 C1.65 0 3.3 0 5 0 C5 1.32 5 2.64 5 4 C3.35 4 1.7 4 0 4 C0 2.68 0 1.36 0 0 Z " fill="#D90578" transform="translate(526,166)"/>
<path d="M0 0 C0.99 0 1.98 0 3 0 C3.33 2.64 3.66 5.28 4 8 C3.67 7.01 3.34 6.02 3 5 C2.01 5 1.02 5 0 5 C0 3.35 0 1.7 0 0 Z " fill="#DB8BBA" transform="translate(361,522)"/>
<path d="M0 0 C-0.99 0 -1.98 0 -3 0 C-3 0.99 -3 1.98 -3 3 C-4.65 3 -6.3 3 -8 3 C-8 2.01 -8 1.02 -8 0 C-4.94736336 -0.98120464 -3.05263664 -0.98120464 0 0 Z " fill="#EEB5DB" transform="translate(447,295)"/>
<path d="M0 0 C0 1.65 0 3.3 0 5 C-1.65 5 -3.3 5 -5 5 C-4.6875 3.0625 -4.6875 3.0625 -4 1 C-1 0 -1 0 0 0 Z " fill="#D660A5" transform="translate(448,294)"/>
<path d="M0 0 C0.99 0 1.98 0 3 0 C3.33 2.64 3.66 5.28 4 8 C3.67 6.68 3.34 5.36 3 4 C2.01 4 1.02 4 0 4 C0 2.68 0 1.36 0 0 Z " fill="#EFC3DF" transform="translate(361,527)"/>
<path d="M0 0 C1.65 0 3.3 0 5 0 C5 1.32 5 2.64 5 4 C3.68 4 2.36 4 1 4 C0.67 2.68 0.34 1.36 0 0 Z " fill="#D460A1" transform="translate(265,493)"/>
<path d="M0 0 C1.32 0 2.64 0 4 0 C4 1.32 4 2.64 4 4 C2.68 4.33 1.36 4.66 0 5 C0 3.35 0 1.7 0 0 Z " fill="#D684B4" transform="translate(439,439)"/>
<path d="M0 0 C1.32 0 2.64 0 4 0 C4 1.65 4 3.3 4 5 C2.68 4.67 1.36 4.34 0 4 C0 2.68 0 1.36 0 0 Z " fill="#FBDFF8" transform="translate(568,410)"/>
<path d="M0 0 C1.32 0 2.64 0 4 0 C4 1.65 4 3.3 4 5 C2.68 4.67 1.36 4.34 0 4 C0 2.68 0 1.36 0 0 Z " fill="#DB94BD" transform="translate(241,410)"/>
<path d="M0 0 C1.32 0 2.64 0 4 0 C4 1.32 4 2.64 4 4 C2.68 4.33 1.36 4.66 0 5 C0 3.35 0 1.7 0 0 Z " fill="#E7A4CC" transform="translate(410,385)"/>
<path d="M0 0 C1.32 0 2.64 0 4 0 C4 1.65 4 3.3 4 5 C2.68 4.67 1.36 4.34 0 4 C0 2.68 0 1.36 0 0 Z " fill="#DE6FA9" transform="translate(705,381)"/>
<path d="M0 0 C1.32 0 2.64 0 4 0 C4 1.65 4 3.3 4 5 C2.68 4.67 1.36 4.34 0 4 C0 2.68 0 1.36 0 0 Z " fill="#D6539D" transform="translate(183,381)"/>
</svg>
